<svg xmlns="http://www.w3.org/2000/svg" viewBox="0 0 595.15 199.09"><title>logo</title><path d="M-69.6-184h43.84a.35.35,0,0,1,.26.26,1.41,1.41,0,0,1,0,.29v28.1c0,1.53.16,1.34-1.3,1.34H-87.23a3,3,0,0,0-1.37.1c-.1.41-.22.82-.32,1.24q-1.72,7.53-3.42,14.95l-.6,2.6a3.85,3.85,0,0,0-.07.49c0,.14.12.27.24.22l.74-.28c1.43-.57,2.89-1.1,4.36-1.58a67,67,0,0,1,8.82-2.22c1.65-.29,3.31-.52,5-.68a61.25,61.25,0,0,1,7.9-.31c1.52,0,3,.11,4.54.29l2,.21a65.7,65.7,0,0,1,8,1.43A84.2,84.2,0,0,1-39.9-134a60.9,60.9,0,0,1,9.9,4.93,44.46,44.46,0,0,1,9.22,7.58c1.6,1.76,3.11,3.59,4.56,5.48a80.16,80.16,0,0,1,7.31,11.27A67.8,67.8,0,0,1-3.34-90c.61,2.37,1.11,4.75,1.5,7.16.19,1.24.38,2.48.48,3.73.08,1,.2,2,.3,3a4.25,4.25,0,0,0,.05.79c0,1,.11,2,.14,3,0,1.85.08,3.69-.05,5.54v1a49,49,0,0,1-.47,5.41A70,70,0,0,1-24.89-17a70.13,70.13,0,0,1-17,10.89A67.71,67.71,0,0,1-52.38-2.32,59.13,59.13,0,0,1-58.56-1c-1.14.18-2.28.37-3.42.51s-2,.19-3,.27c-1.21.1-2.43.2-3.65.19h-5a40.3,40.3,0,0,1-4.24-.31C-79-.45-80.16-.58-81.3-.75c-1.9-.27-3.77-.64-5.63-1.09a70.39,70.39,0,0,1-44.24-33.25,67.57,67.57,0,0,1-4.92-10.08,2.21,2.21,0,0,0-.23-.55,3.76,3.76,0,0,1-.58-1.35c-.51-1.88-1-3.75-1.51-5.63a54.3,54.3,0,0,1-1.16-5.92c-.13-.94-.24-1.89-.39-2.84-.11-.75-.27-1.49-.42-2.23-.45-2.19-.9-4.39-1.37-6.58-.72-3.25-1.43-6.5-2.19-9.74q-1.4-6.17-3.13-12.36c-1.63-6-3.44-11.9-5.53-17.73a141.4,141.4,0,0,0-5.91-14.24,79.28,79.28,0,0,0-6.38-11,43.73,43.73,0,0,0-5.38-6.45,55.64,55.64,0,0,0-5.52-4.65,62.27,62.27,0,0,0-19.67-9.73,62.71,62.71,0,0,0-7.41-1.73c-1.79-.31-3.58-.54-5.39-.7-1.22-.1-2.44-.15-3.65-.19-.8,0-1.59-.09-2.38-.06a48.81,48.81,0,0,0-5.13.25c-.89.11-1.78.16-2.66.27s-1.9.25-2.84.42a62.29,62.29,0,0,0-8.8,2.22,67.14,67.14,0,0,0-11.79,5.32,65.22,65.22,0,0,0-15.68,12.43,63.09,63.09,0,0,0-8.16,11,65.35,65.35,0,0,0-5.65,12.5,59.6,59.6,0,0,0-2,8c-.28,1.59-.51,3.18-.69,4.79a66.84,66.84,0,0,0-.36,8c0,1.58,0,3.17.08,4.75.13,3.3.13,6.59.14,9.89,0,2.51,0,5-.07,7.52,0,1.42-.1,2.84-.18,4.25s-.2,2.56-.31,3.85c-.08,1-.16,2-.27,3a55.39,55.39,0,0,1-2.46,11.22,65.7,65.7,0,0,1-5.22,11.91c-.23.4-.46.8-.7,1.2a5.64,5.64,0,0,0-.63,1.22,2.18,2.18,0,0,1-.28.52A69.86,69.86,0,0,1-318.61-6.47a66.44,66.44,0,0,1-12.84,4.54c-2,.48-3.92.86-5.91,1.16-1.37.21-2.75.38-4.12.5-1.64.14-3.29.28-4.94.27h-3.37c-1.58,0-3.16-.12-4.74-.26a67,67,0,0,1-14.7-2.94,70.58,70.58,0,0,1-41-34.79,63.37,63.37,0,0,1-4.42-10.56,65.65,65.65,0,0,1-1.92-7.67q-.53-2.82-.82-5.67c-.21-2.07-.35-4.14-.37-6.22v-.79c0-.58,0-.61.61-.62h27a.31.31,0,0,1,.26.25v.39a38.28,38.28,0,0,0,2.74,12.71,40.16,40.16,0,0,0,5.43,9.39,46.53,46.53,0,0,0,5.84,6.31,38,38,0,0,0,15.3,8.38,43.61,43.61,0,0,0,6.2,1.24,46.34,46.34,0,0,0,6.12.37h1.78a44,44,0,0,0,5.62-.38,42.24,42.24,0,0,0,7.53-1.6A36,36,0,0,0-317.87-42,46.3,46.3,0,0,0-311.15-51,36.66,36.66,0,0,0-307-61.51a35,35,0,0,0,.71-5.19c.1-1.52.13-3,.08-4.55,0-1.12-.08-2.24-.18-3.36-.12-1.37-.25-2.75-.49-4.12-.12-.71-.18-1.44-.26-2.16-.1-1-.2-2-.31-3v-.39l-.27-3.45c-.1-1.45-.21-2.9-.29-4.35-.05-1-.07-2-.08-3s0-2.18,0-3.27a17.18,17.18,0,0,1,.12-2.27v-.49c.08-1.25.15-2.51.25-3.75.08-.92.21-1.84.31-2.76s.27-2.09.43-3.13c.23-1.6.53-3.19.87-4.76a80.43,80.43,0,0,1,2.52-9.15,10.87,10.87,0,0,1,.59-1.46,9.4,9.4,0,0,0,.39-1,99.44,99.44,0,0,1,11.46-21.94,92.69,92.69,0,0,1,10.65-12.74,97.16,97.16,0,0,1,36.84-23,85.25,85.25,0,0,1,10.77-2.93c1.9-.38,3.81-.74,5.74-1,1.41-.18,2.81-.39,4.22-.51s2.7-.22,4-.28c2.08-.1,4.15-.16,6.23-.13.89,0,1.78,0,2.67.08h1.09c1.52,0,3,.15,4.54.29q3,.25,5.89.7c2.9.44,5.77,1,8.62,1.71A89.35,89.35,0,0,1-178.06-183a87.25,87.25,0,0,1,16.72,9,90.13,90.13,0,0,1,23.68,23.89,93.85,93.85,0,0,1,5.63,9.53,130.49,130.49,0,0,1,6.69,15.4,190.07,190.07,0,0,1,5.59,18.54q1.48,5.89,2.69,11.85c.53,2.58,1,5.18,1.47,7.77q.59,3.17,1.11,6.33c.31,1.85.58,3.71.88,5.57.23,1.46.47,2.93.7,4.39.15.94.28,1.89.44,2.83.23,1.4.46,2.8.71,4.19s.46,2.53.8,3.77a35.3,35.3,0,0,0,3,7.41,43,43,0,0,0,5.86,8.31,41.58,41.58,0,0,0,6.85,6.27,38.18,38.18,0,0,0,12.91,6,43,43,0,0,0,4.65.93c.84.13,1.7.19,2.55.28a59.9,59.9,0,0,0,7.81.16,33,33,0,0,0,3.84-.33,42.89,42.89,0,0,0,4.77-.84,36,36,0,0,0,17.13-9.19,43.91,43.91,0,0,0,9.37-12.9,35.87,35.87,0,0,0,2.85-8.81,33.6,33.6,0,0,0,.49-4,38.88,38.88,0,0,0,.08-4.45c-.08-1.85-.13-3.69-.35-5.53a46.33,46.33,0,0,0-2.72-11.31,36.21,36.21,0,0,0-16.21-18.8,42.22,42.22,0,0,0-10.44-4.15A52.55,52.55,0,0,0-64.34-112c-1.6-.22-3.21-.4-4.82-.5-1.29-.08-2.57-.14-3.86-.15a23.61,23.61,0,0,0-3.36.14c-.75.09-1.51.13-2.26.21-1.48.17-2.94.4-4.4.68a44.44,44.44,0,0,0-7.49,2.14,35.11,35.11,0,0,0-7.92,4.24c-.73.53-.53.45-1.45.45h-13.46c-.85,0-.9.09-1.09-.86-.65-3.34-1.3-6.67-2-10a49.22,49.22,0,0,0-4.34-12.47q-1.23-2.43-2.55-4.81c-.08-.14-.15-.29-.24-.43a.93.93,0,0,1-.13-.76l.42-2.13c.44-2.23.89-4.46,1.33-6.69.37-1.84.75-3.68,1.12-5.52s.69-3.49,1-5.24c.52-2.58,1-5.17,1.54-7.75.43-2.14.84-4.27,1.26-6.4l1.5-7.47c.36-1.81.71-3.62,1.07-5.43.2-1,.4-2,.61-3a.36.36,0,0,1,.35-.29H-69.6Z" transform="translate(596 194.18)" style="fill:#f94c2a"/><path d="M-182.69-100.17h28a.32.32,0,0,1,.3.21c0,.19.12.38.16.57.35,1.48.68,3,1,4.43l2.89,12.29c1,4.07,1.91,8.15,2.89,12.22q1.38,5.76,2.82,11.52c.91,3.67,1.85,7.34,2.85,11q1.35,4.95,2.92,9.85c.07.22.15.44.21.66a.45.45,0,0,1,0,.28,3.62,3.62,0,0,1-.24.43,71.32,71.32,0,0,1-10.79,13.62,68.64,68.64,0,0,1-12.8,9.9A79.57,79.57,0,0,1-182-4.73c-2.79.79-5.62,1.44-8.47,2-1.84.35-3.7.64-5.56.9-1.43.2-2.88.33-4.32.47-1.12.12-2.23.21-3.35.31h-.4c-2.33.1-4.67.25-7,.27s-4.62,0-6.93-.06c-1.51-.06-3-.15-4.54-.31-.75-.09-1.51-.16-2.26-.23-1.41-.14-2.81-.35-4.21-.57s-2.92-.51-4.37-.82A85.7,85.7,0,0,1-242-5a93,93,0,0,1-13.16-5.39,96.73,96.73,0,0,1-16.55-10.41,86.69,86.69,0,0,1-7.95-7c-1.19-1.19-2.35-2.41-3.52-3.61-.18-.19-.36-.39-.53-.59a.41.41,0,0,1-.06-.46c.09-.18.19-.35.29-.52.86-1.44,1.68-2.92,2.44-4.41a64.46,64.46,0,0,0,3.74-8.72,45.73,45.73,0,0,0,1.64-6.1c.33-1.69.64-3.37.93-5.06.19-1.1.33-2.22.47-3.33.18-1.47.36-2.94.52-4.42.1-.91.17-1.83.24-2.75s.14-2,.22-3a.19.19,0,0,1,.08-.15c.07,0,.12,0,.15.08.12.27.26.53.38.8a64.53,64.53,0,0,0,10.82,16.59,68.06,68.06,0,0,0,23.44,16.84,63.26,63.26,0,0,0,11.62,3.83c1.67.38,3.36.66,5.06.91s3.15.34,4.72.49a6.7,6.7,0,0,1,1.09.06c1.38,0,2.77.07,4.15.12s2.5,0,3.76-.06h.39c1.68,0,3.36-.13,5-.29a65.45,65.45,0,0,0,14.59-3,48.2,48.2,0,0,0,12-5.91,39.92,39.92,0,0,0,15.27-19.32,46,46,0,0,0,2.42-9c.05-.33.11-.65.16-1a.32.32,0,0,0-.23-.28h-52.39a.36.36,0,0,1-.27-.25V-99.1c0-1.21-.09-1.12,1.12-1.12Z" transform="translate(596 194.18)" style="fill:#fa4c2a"/><path d="M-347.11-184h43.77c.28,0,.39.13.4.44s0,.39,0,.59v28.71a.3.3,0,0,1-.25.25h-62.15c-.84,0-.71,0-.89.75-.38,1.53-.71,3.08-1.07,4.62q-1.23,5.38-2.48,10.78c-.22.93-.44,1.86-.65,2.8a4.1,4.1,0,0,0-.06.49.21.21,0,0,0,.22.14c.21-.07.43-.14.64-.23a67.76,67.76,0,0,1,9.31-3c1.89-.47,3.8-.84,5.72-1.13,1.37-.22,2.75-.34,4.12-.51h.3a65.57,65.57,0,0,1,6.72-.19c1.55.06,3.09.12,4.64.29.72.08,1.44.13,2.16.24,1.11.17,2.22.29,3.32.49A84.72,84.72,0,0,1-323.17-136a69.59,69.59,0,0,1,11.47,4.57c1.29.66,2.56,1.37,3.79,2.13a5.29,5.29,0,0,1,.5.32.3.3,0,0,1,.14.34,2.37,2.37,0,0,1-.14.57c-1.13,3.86-2.13,7.76-3,11.67-.64,2.77-1.2,5.54-1.7,8.33-.33,1.89-.63,3.77-.89,5.67-.2,1.47-.38,2.94-.48,4.42a15.12,15.12,0,0,1-.18,1.57h-.07a.14.14,0,0,1-.09,0l-.74-.93a37.32,37.32,0,0,0-6.27-6.29,38.33,38.33,0,0,0-9.59-5.47,49.16,49.16,0,0,0-8.34-2.42c-1.46-.29-2.93-.51-4.4-.7-.94-.13-1.9-.18-2.85-.27-1.51-.13-3-.19-4.55-.2a27.74,27.74,0,0,0-3.16.14c-.78.09-1.57.14-2.36.23-1.48.16-2.94.39-4.39.68a46.19,46.19,0,0,0-7.31,2.08,35.12,35.12,0,0,0-8,4.26l-.41.29a1,1,0,0,1-.64.2h-29.8a.26.26,0,0,1-.2-.29l.42-2.23c.45-2.23.89-4.46,1.34-6.69.36-1.81.73-3.62,1.09-5.43s.71-3.62,1.07-5.43l1.5-7.56q.56-2.76,1.09-5.52l1.26-6.31q.75-3.83,1.51-7.66l1.21-6.23c.37-1.84.73-3.68,1.1-5.52.5-2.52,1-5,1.51-7.56.36-1.81.71-3.62,1.07-5.43.45-2.26.9-4.53,1.36-6.79a.89.89,0,0,1,.07-.28.48.48,0,0,1,.21-.19.71.71,0,0,1,.29,0h43.64Z" transform="translate(596 194.18)" style="fill:#fa4c2a"/><path d="M-509.64-160a9.07,9.07,0,0,1,1.9,1c.92.44,1.71,1.1,2.67,1.48.27.11.48.36.74.48.6.28,1.13.69,1.71,1s1.07.63,1.62.93c1,.51,1.85,1.12,2.82,1.61.62.3,1.18.72,1.79,1,1,.54,2,1.21,3,1.71.47.23.91.52,1.36.79.7.44,1.43.81,2.13,1.24.93.56,1.89,1.08,2.82,1.63l1.36.8c.42.25.87.46,1.27.75a1.35,1.35,0,0,0,.26.15c1,.52,2,1.12,3,1.71l1.62.93,2,1.18,2.65,1.52c.64.33,1.25.73,1.87,1.09l1,.57c.64.33,1.22.78,1.88,1.08a1.15,1.15,0,0,1,.33.21c.53.4,1.18.59,1.69,1a2.6,2.6,0,0,1,.86.48c.15.11.34.19.51.29l.59.34c.09.05.16.13.25.18a16.85,16.85,0,0,1,2.29,1.33c.64.2,1.08.77,1.73.93.94.67,2,1.1,2.95,1.78.62.24,1.09.75,1.73.94.53.45,1.24.6,1.77,1.06a7.72,7.72,0,0,0,1,.59l2.22,1.29c1.37.78,2.76,1.53,4.11,2.34l2.8,1.63,1.53.89c1.34.77,2.69,1.53,4,2.32,1.76,1,3.56,2,5.29,3.08.42.26.86.47,1.29.72,1.06.61,2.1,1.23,3.16,1.83,1.26.71,2.51,1.43,3.75,2.18.68.26,1.23.76,1.89,1l.33.22a.4.4,0,0,1,.2.32v64.81c0,.71.08.7-.67,1.15a10.26,10.26,0,0,0-1.76,1.08,8.3,8.3,0,0,0-1.21.65c-.38.2-.74.44-1.11.64a10.61,10.61,0,0,0-1,.61,4.54,4.54,0,0,1-.45.21,2.31,2.31,0,0,0-.35.18,14.91,14.91,0,0,1-2,1.2,7.75,7.75,0,0,1-1.28.74c-1.13.73-2.35,1.32-3.49,2-.64.4-1.33.71-1.95,1.14-.38.26-.81.44-1.2.68-.76.46-1.54.89-2.31,1.33l-2.48,1.43c-1.45.84-2.92,1.65-4.35,2.52l-1.54.88c-1.11.64-2.2,1.32-3.33,1.93-.81.44-1.6.91-2.39,1.38-1.51.88-3,1.72-4.54,2.6A30.31,30.31,0,0,1-464-21.73a1,1,0,0,0-.17.1,16,16,0,0,1-1.69,1c-.56.35-1.16.63-1.71,1s-1.09.6-1.6,1a11.47,11.47,0,0,1-1.36.79c-.84.46-1.68.91-2.47,1.44-.51.15-.87.59-1.39.74a1.62,1.62,0,0,0-.41.27c-.19.12-.39.23-.59.34s-.19.07-.27.12a24.6,24.6,0,0,1-2.23,1.27c-.51.3-1,.65-1.51.94l-1.12.62a12.17,12.17,0,0,1-1.11.63,12.17,12.17,0,0,1-1.11.63,27.13,27.13,0,0,1-2.8,1.66c-1.2.68-2.36,1.43-3.58,2.08-.81.44-1.59.92-2.39,1.37l-1.28.73-2.13,1.24-1.46.84c-1.13.67-2.28,1.31-3.41,2-.91.53-1.8,1.1-2.76,1.54-.88.64-1.88,1.07-2.8,1.66-.47.3-.95.58-1.44.85-.76.4-1.5.82-2.22,1.28-.2.12-.42.2-.62.3-.45-.51-.31-1.13-.31-1.7V-18.7a11.9,11.9,0,0,0-.33-3.47,1.12,1.12,0,0,0,.76-.12c.59-.35,1.2-.68,1.8-1s1.31-.75,2-1.15,1-.55,1.54-.86,1-.58,1.44-.86l1.29-.72.35-.2c.54-.37,1.13-.65,1.7-1s1.14-.65,1.71-1a5.25,5.25,0,0,0,.49-.33,1.46,1.46,0,0,1,.52-.28,1.78,1.78,0,0,0,.43-.23c.86-.56,1.76-1,2.64-1.55.45-.26.9-.53,1.34-.83.92-.35,1.71-1,2.59-1.41.5-.25.95-.59,1.44-.86s.79-.47,1.19-.69c.92-.51,1.82-1.06,2.72-1.59.43-.25.84-.52,1.28-.74s.72-.46,1.11-.64.89-.55,1.35-.8.85-.49,1.29-.73a11.46,11.46,0,0,1,1.38-.75c.56-.47,1.28-.68,1.85-1.12a5.29,5.29,0,0,1,.52-.29c1-.58,2-1.12,3-1.73.34-.2.69-.37,1-.57.88-.52,1.74-1.07,2.64-1.55,1.16-.63,2.26-1.34,3.42-2,1.38-.76,2.72-1.59,4.1-2.36s2.72-1.59,4.09-2.38l2.4-1.37c1.51-.87,3-1.76,4.53-2.61.92-.51,1.79-1.1,2.74-1.56.12-.06.22-.14.34-.21a.38.38,0,0,0,.18-.32V-96.64a.5.5,0,0,0-.23-.42,3.62,3.62,0,0,0-.41-.27l-4.11-2.34-2.9-1.7c-.31-.18-.63-.34-.94-.54a3.76,3.76,0,0,0-.94-.52c-.89-.64-1.9-1-2.81-1.65a12.25,12.25,0,0,0-1.36-.78c-.92-.52-1.79-1.11-2.74-1.56a1,1,0,0,1-.17-.1c-.63-.48-1.36-.79-2-1.21s-1.35-.82-2-1.19c-.84-.46-1.65-1-2.47-1.44a25.53,25.53,0,0,1-2.29-1.35,9.26,9.26,0,0,1-1.62-.92l-1.55-.88-1.2-.67c-1.74-1-3.43-2.08-5.2-3-.41-.21-.79-.47-1.19-.7-1.62-.93-3.26-1.86-4.87-2.81-1.3-.76-2.62-1.5-3.92-2.29-1-.57-2-1.09-2.92-1.64-.45-.26-.9-.54-1.36-.8-.91-.51-1.8-1.09-2.72-1.59-.55-.3-1.07-.64-1.64-.91a12.48,12.48,0,0,1-1.44-.84c-.68-.41-1.36-.81-2.06-1.17s-1.18-.71-1.78-1.07c-.36-.22-.74-.42-1.11-.64-.88-.5-1.78-1-2.64-1.52a1,1,0,0,0-.29-.07c.15-8.46,0-16.91.07-25.37A1.41,1.41,0,0,1-509.64-160Z" transform="translate(596 194.18)" style="fill:#fa4c2a"/><path d="M-509.64-160v25.91a.9.9,0,0,1-.39.85c-.24.16-.48.35-.73.49-1.18.66-2.34,1.35-3.5,2s-2.23,1.27-3.33,1.93c-.85.51-1.72,1-2.58,1.46-.48.28-1,.52-1.44.84-.68.47-1.44.79-2.15,1.21s-1.37.78-2,1.23c-.43.29-.91.52-1.37.77-.91.52-1.83,1-2.74,1.56a9.37,9.37,0,0,1-1.09.67c-.4.15-.74.42-1.12.6s-.85.5-1.28.74-1,.69-1.6,1-.9.54-1.37.77c-.65.33-1.23.76-1.87,1.09s-1.31.77-2,1.12c-.52.27-1,.61-1.53.9s-1.3.76-2,1.11a14.41,14.41,0,0,0-1.44.86c-.68.39-1.36.79-2.06,1.15s-1.18.72-1.78,1.07c-.33.2-.67.41-1,.58-.74.36-1.42.82-2.14,1.23s-1.38.76-2,1.18-1.44.79-2.12,1.25-1.36.81-2,1.18c-1.37.72-2.67,1.55-4,2.3s-2.67,1.56-4,2.33c-.88.51-1.78,1-2.66,1.51-.72.4-1.42.83-2.13,1.25s-1.2.68-1.79,1a10.25,10.25,0,0,0-1.52.92,1,1,0,0,1-.26.15c-1.36.65-2.61,1.51-4,2.21-.93.69-2,1.12-3,1.75-.38.25-.79.46-1.17.73a7.72,7.72,0,0,0-.94.51c-.65.25-1.17.74-1.81,1-.24.09-.42.32-.66.43-1,.45-1.77,1.12-2.74,1.54a3.3,3.3,0,0,0-.51.31,1.24,1.24,0,0,1-.32.23,12.3,12.3,0,0,0-1.37.77c-.52.27-1,.61-1.53.88a5.4,5.4,0,0,1-1,.55.64.64,0,0,0-.25.15,9.21,9.21,0,0,1-1.61,1,.21.21,0,0,1-.28-.11s0,0,0,0v-60.39a.47.47,0,0,1,.28-.48c.45-.19.83-.53,1.31-.69a1.85,1.85,0,0,0,.33-.21,1.6,1.6,0,0,1,.4-.28c.92-.44,1.75-1,2.66-1.5.56-.28,1.07-.65,1.62-.94s1.09-.62,1.62-.94c.74-.44,1.49-.84,2.22-1.29.5-.31,1-.58,1.53-.88s1.32-.76,2-1.13l2.56-1.48c.71-.41,1.45-.77,2.13-1.24.35-.25.75-.4,1.12-.62l1.09-.67c.51-.29,1-.61,1.54-.88s1-.66,1.67-1.05a10.45,10.45,0,0,0,1.36-.82c.91-.38,1.71-1,2.58-1.44.6-.32,1.18-.7,1.77-1.06l.43-.24c1.15-.57,2.23-1.27,3.34-1.91.31-.18.64-.34.94-.53s.93-.49,1.36-.79.94-.49,1.35-.82c.49-.12.83-.52,1.29-.72s.86-.47,1.3-.7.89-.55,1.34-.81l2.3-1.34c.72-.41,1.42-.83,2.14-1.23s1.19-.69,1.78-1.05c.87-.53,1.76-1,2.65-1.52.54-.31,1.1-.59,1.62-.93.7-.44,1.42-.83,2.14-1.21.47-.25.9-.55,1.36-.81,1-.55,1.92-1.15,2.89-1.69.81-.44,1.6-.9,2.39-1.39.39-.24.79-.47,1.2-.68.78-.41,1.53-.89,2.3-1.32s1.84-1,2.74-1.56,1.87-1,2.79-1.63,1.93-1.13,2.9-1.69l2.91-1.67c.72-.41,1.43-.8,2.15-1.22s1.69-1,2.55-1.49c1.35-.75,2.65-1.59,4-2.3.58-.3,1.14-.67,1.71-1a.32.32,0,0,1,.44.11h0a2.5,2.5,0,0,1,.34,1.44v23.83c0,.54.1,1.15-.52,1.5-.78.42-1.56.84-2.33,1.28-1,.6-2,1.2-3.08,1.76-.6.32-1.18.72-1.78,1.06s-1,.58-1.54.87l-2,1.14-2.73,1.58c-.69.4-1.36.8-2,1.19s-1,.64-1.54.87c-.09,0-.17.1-.26.15-.43.29-.9.52-1.36.78s-.84.52-1.27.77-.69.37-1,.58a10.39,10.39,0,0,1-1,.53c-.92.56-1.9,1-2.8,1.65-.22.15-.47.23-.69.37s-.44.29-.67.42l-2.67,1.49a1.32,1.32,0,0,0-.25.16,12.51,12.51,0,0,1-1.69,1c-.55.3-1.06.66-1.64.91a2,2,0,0,0-.49.32,1.32,1.32,0,0,1-.51.3,1.62,1.62,0,0,0-.35.17,5,5,0,0,1-1,.63,7.77,7.77,0,0,1-1,.5,2.22,2.22,0,0,0-.42.25,3.82,3.82,0,0,1-.94.54.59.59,0,0,0-.17.1,7.11,7.11,0,0,1-1.35.81l-4.12,2.4c-.66.38-1.29.8-2,1.16-.87.46-1.72,1-2.57,1.47a21.48,21.48,0,0,0-2.13,1.24,6.42,6.42,0,0,1-.86.46c-.65.33-1.22.79-1.89,1.08a1,1,0,0,0-.17.1c-1.08.69-2.23,1.26-3.32,1.92-1.38.83-2.8,1.59-4.17,2.44-.51.31-1,.59-1.54.88l-.77.44a2.94,2.94,0,0,0-.89.59v6.42a2.54,2.54,0,0,0,0,.39.17.17,0,0,0,.1,0,.54.54,0,0,0,.18,0c1.31-.76,2.61-1.53,3.93-2.27s2.7-1.62,4.11-2.34c.91-.65,1.94-1.1,2.88-1.71a21.85,21.85,0,0,1,2.49-1.41,5,5,0,0,0,1-.63,6.11,6.11,0,0,0,1.2-.73c.4-.24.81-.44,1.21-.67.77-.44,1.55-.86,2.3-1.35.46-.3,1-.56,1.44-.84,1.17-.67,2.38-1.26,3.49-2,.41-.13.7-.49,1.13-.59a1.45,1.45,0,0,0,.34-.2,10.28,10.28,0,0,1,1.11-.64c.52-.27,1-.6,1.52-.91a12.53,12.53,0,0,1,1.27-.76,17.35,17.35,0,0,0,1.63-.91c.63-.35,1.24-.74,1.86-1.1.29-.17.58-.31.86-.48a4.84,4.84,0,0,1,.86-.48,3.21,3.21,0,0,0,.5-.31c.87-.54,1.8-1,2.63-1.56.91-.38,1.67-1,2.59-1.4a4.2,4.2,0,0,0,.49-.33l.69-.39a2.27,2.27,0,0,0,.34-.19,11.08,11.08,0,0,1,1.62-.89,10,10,0,0,1,1.66-1l.17-.11c1.08-.67,2.2-1.3,3.33-1.91.57-.45,1.26-.7,1.86-1.11.4-.27.85-.49,1.27-.74l4.62-2.66,3.84-2.21c.74-.43,1.51-.81,2.21-1.31C-509.88-160.31-509.8-160.27-509.64-160Z" transform="translate(596 194.18)" style="fill:#da4225"/><path d="M-509.63-29.25c-.12.15-.27.22-.42.08a2.44,2.44,0,0,0-1-.6c-.11,0-.21-.15-.32-.22a3.27,3.27,0,0,0-.5-.32A18.77,18.77,0,0,1-514-31.55a5.32,5.32,0,0,1-.93-.53,1.93,1.93,0,0,0-.88-.44l-.08,0a8.05,8.05,0,0,0-1.52-.91c-.83-.46-1.64-1-2.45-1.45-.42-.26-.86-.49-1.29-.73l-2.3-1.33a24.75,24.75,0,0,0-2.66-1.49.59.59,0,0,1-.17-.1c-1.08-.7-2.21-1.31-3.32-2-.48-.28-1-.56-1.46-.82s-1-.59-1.43-.86c-1.37-.79-2.75-1.56-4.11-2.35-1.06-.61-2.1-1.24-3.15-1.85s-1.83-1-2.75-1.55-1.64-1-2.47-1.44l-3.17-1.72c-.52-.29-1-.59-1.54-.89l-2-1.12-1.59-1c-1-.58-2-1.18-3-1.72-.18-.1-.35-.19-.51-.3-.63-.43-1.31-.76-2-1.15l-1.87-1.07-1-.53a8.65,8.65,0,0,0-.93-.54c-.45-.21-.83-.53-1.28-.74s-1.14-.66-1.7-1a6.1,6.1,0,0,1-.87-.47.7.7,0,0,1-.29-.6V-93a.68.68,0,0,1,.37-.64c.68-.41,1.36-.8,2.06-1.17l.34-.19c1.09-.69,2.21-1.31,3.33-1.94s2.27-1.32,3.41-2c1.42-.83,2.84-1.67,4.27-2.48a7.08,7.08,0,0,0,1.37-.7,7.35,7.35,0,0,0,1.37-.76,10.87,10.87,0,0,0,1-.58l.94-.55c.31-.17.65-.31,1-.51a13.63,13.63,0,0,1,1.79-1,1.9,1.9,0,0,0,.33-.22,2.4,2.4,0,0,1,.85-.48.51.51,0,0,0,.18-.09,19.08,19.08,0,0,1,2-1.18c.28-.18.56-.34.83-.53s.54-.23.78-.42a3.61,3.61,0,0,1,1-.59c.27-.11.49-.34.75-.47q.66-.33,1.29-.72l2-1.16c.22-.14.46-.25.69-.38.86-.47,1.71-1,2.56-1.47.48-.28,1-.57,1.44-.84.86-.48,1.7-1,2.56-1.49l2.66-1.5c.64-.34,1.24-.74,1.86-1.11.37-.22.75-.41,1.11-.63l2.57-1.48,2.65-1.51c.47-.24.9-.54,1.37-.79.87-.46,1.7-1,2.56-1.48.56-.33,1.14-.64,1.71-1l1.69-1c.19-.12.26-.09.42.21a2,2,0,0,1,.32,1.06v24.41c0,.53,0,1.08-.7,1.24-.78.49-1.62.88-2.37,1.42a5.79,5.79,0,0,1-.79.39c-.26.15-.5.32-.75.47l-1.79,1-1.62.94c-.4.08-.64.44-1,.58s-.65.45-1,.61c-.71.29-1.3.78-2,1.1-.21.1-.4.23-.61.33-.39.18-.67.53-1.08.67a4.82,4.82,0,0,0-1,.6c-.38.25-.81.43-1.21.66-.62.36-1.24.74-1.85,1.12a3.23,3.23,0,0,1-.78.41,1.42,1.42,0,0,0-.44.23c-1.26.76-2.57,1.46-3.81,2.27-.19.13-.42.19-.61.31-.49.28-1,.57-1.44.86l-1,.58a6.67,6.67,0,0,1-.94.53,14.36,14.36,0,0,0-1.44.85c-.92.51-1.8,1.07-2.72,1.58s-1.71,1-2.56,1.48a.33.33,0,0,0-.18.32v4.25a.54.54,0,0,0,.29.48c.31.18.64.33.94.54.49.33,1,.56,1.53.89s1,.61,1.54.88c1.63.93,3.24,1.88,4.88,2.79,2.14,1.21,4.26,2.49,6.39,3.73.93.55,1.88,1.08,2.82,1.62l1.79,1c1.24.69,2.46,1.39,3.66,2.13a17.85,17.85,0,0,1,1.82,1c.59.27,1.1.72,1.69,1s1.3.77,2,1.11,1.32.75,2,1.13l.42.25a3.13,3.13,0,0,0,.86.47c.12,0,.2.16.3.25a3,3,0,0,0,.4.24h0c.6.4.5,1,.5,1.61v23.59A2.66,2.66,0,0,1-509.63-29.25Z" transform="translate(596 194.18)" style="fill:#4a57a6"/><path d="M-510.24-22.17a.2.2,0,0,0,.13.14.57.57,0,0,1,.45.67,2.54,2.54,0,0,0,0,.39V4.75a.24.24,0,0,1-.3.16h0l-2.31-1.32c-1.36-.78-2.71-1.6-4.1-2.35-.09,0-.17-.1-.26-.15-1-.67-2.15-1.26-3.24-1.86-.66-.37-1.3-.78-2-1.17-.39-.23-.78-.48-1.19-.69-1.23-.62-2.37-1.4-3.57-2.09-.48-.28-1-.51-1.48-.79s-1-.58-1.43-.86A12.32,12.32,0,0,0-530.67-7,25,25,0,0,0-533-8.31a22.43,22.43,0,0,0-2.54-1.52A14.89,14.89,0,0,0-537.59-11c-.84-.58-1.76-1-2.63-1.55s-2-1.2-3-1.71c-.5-.25-1-.57-1.45-.85-.67-.41-1.35-.81-2-1.17s-1-.61-1.53-.91l-3-1.72c-1-.57-2.08-1.27-3.14-1.86s-1.93-1.12-2.9-1.67l-1.8-1c-.89-.56-1.8-1.08-2.74-1.55a1.28,1.28,0,0,1-.25-.15c-.93-.56-1.86-1.13-2.81-1.65-.43-.24-.84-.51-1.27-.75s-.79-.47-1.2-.68c-.93-.49-1.79-1.1-2.75-1.54a2,2,0,0,1-.41-.28,3.57,3.57,0,0,0-.68-.4,11.56,11.56,0,0,1-1.45-.83,14.3,14.3,0,0,1-1.68-1c-.25-.22-.62-.22-.87-.47a2.34,2.34,0,0,0-.77-.43c-.29-.14-.57-.32-.85-.48s-.41-.22-.6-.35a2.11,2.11,0,0,0-.85-.48.42.42,0,0,1-.17-.1,3.61,3.61,0,0,0-1.19-.68c-.43-.37-1-.54-1.43-.87s-.73-.3-1-.57a5.83,5.83,0,0,0-1.1-.66,11,11,0,0,1-1-.6,3.75,3.75,0,0,0-1-.5,1.14,1.14,0,0,1-.34-.19,17.36,17.36,0,0,0-2.11-1.27c-.85-.5-1.7-1-2.56-1.47s-1.69-1-2.56-1.5-2-1.16-3-1.7a.52.52,0,0,1-.29-.48V-75a2.73,2.73,0,0,1,.09-1.17c.31-.19.61-.39.93-.56,1-.54,2-1.08,2.89-1.69.33-.21.7-.37,1-.57,1.06-.6,2.13-1.18,3.16-1.83A15.74,15.74,0,0,0-586-82c1-.44,1.9-1.17,2.92-1.63a5.67,5.67,0,0,1,1.19-.69,4.68,4.68,0,0,1,1.11-.63c.9-.61,1.89-1.08,2.79-1.68a9.32,9.32,0,0,0,1-.5,4,4,0,0,1,.85-.49c.54-.29,1.06-.64,1.6-1l1.54-.88h.09a.3.3,0,0,1,.31.19,1.41,1.41,0,0,1,0,.29V-58.4a.43.43,0,0,0,.2.32.62.62,0,0,0,.17.11A24.33,24.33,0,0,1-570-56.71c.25.16.53.26.79.41.79.47,1.57,1,2.37,1.42a10.46,10.46,0,0,1,1,.56,6.31,6.31,0,0,0,1,.6,3.76,3.76,0,0,1,.5.31l1.46.82.42.25c.2.12.38.26.58.37,1.09.61,2.18,1.23,3.25,1.87.73.44,1.49.84,2.23,1.27,1.14.66,2.28,1.31,3.41,2a20.38,20.38,0,0,0,1.9,1c.46.23.89.55,1.35.81,1,.53,1.85,1.13,2.81,1.63s1.84,1.16,2.83,1.6c1.32.86,2.72,1.61,4.08,2.39s2.66,1.58,4,2.3c.55.3,1.07.65,1.62.94s1,.63,1.54.9.78.5,1.18.7.81.44,1.2.69a7.17,7.17,0,0,0,.86.47c.66.31,1.22.79,1.89,1.07.84.59,1.76,1,2.64,1.53,1.42.83,2.81,1.71,4.27,2.46a.14.14,0,0,1,.09,0,7.7,7.7,0,0,0,1.36.8c.86.66,1.9,1,2.78,1.67a4.87,4.87,0,0,1,1.35.8,6.74,6.74,0,0,1,1.12.61c.43.18.76.52,1.19.7a10.74,10.74,0,0,1,1.11.64,2.31,2.31,0,0,1,.61.3C-510.86-22.55-510.48-22.48-510.24-22.17Z" transform="translate(596 194.18)" style="fill:#da4225"/><path d="M-509.86-167.25a1.54,1.54,0,0,0,.2-.76v-26a10.28,10.28,0,0,1,1.48.75c1,.53,1.84,1.16,2.82,1.62.64.47,1.4.73,2.05,1.17,1,.63,2,1.14,2.89,1.71s1.65.94,2.46,1.44,1.9,1.06,2.84,1.6l1.28.74c1.15.71,2.35,1.32,3.5,2s2.64,1.49,3.92,2.29c.55.35,1.14.66,1.72,1s1,.58,1.44.85c1.11.64,2.24,1.26,3.34,1.92s1.93,1.11,2.89,1.68,2,1.14,3,1.71l1.45.84,1.44.86a7.56,7.56,0,0,0,1.11.63c.65.27,1.16.76,1.81,1,.92.65,1.93,1.13,2.89,1.7,1.19.71,2.36,1.44,3.57,2.09,1,.56,2,1.2,3.09,1.76.26.14.49.31.77.43a3.56,3.56,0,0,1,.58.37l.59.35c.17.09.36.17.52.27.61.39,1.25.72,1.88,1.08a5.86,5.86,0,0,0,.92.57,4,4,0,0,1,.85.5c.46.32,1,.49,1.46.81.27.19.56.35.84.51s.36.17.53.26a3,3,0,0,1,.33.21,3.51,3.51,0,0,0,.4.27c.65.27,1.18.72,1.81,1,.29.14.55.35.85.47a4.49,4.49,0,0,1,.75.47l2.65,1.51c.17.1.36.17.53.28.82.53,1.68,1,2.54,1.51a11.48,11.48,0,0,0,1.9,1,18.27,18.27,0,0,0,1.85,1.13c1,.56,1.91,1.17,2.93,1.64a5,5,0,0,0,1,.63l4.09,2.38,3.94,2.24a.44.44,0,0,1,.23.41V-118a.21.21,0,0,1-.21.21h-.06a2.39,2.39,0,0,1-.37-.15c-.93-.61-1.93-1.11-2.89-1.68s-1.9-1.06-2.83-1.62c-1.94-1.17-3.93-2.27-5.89-3.41l-5.21-3c-1.17-.66-2.33-1.35-3.5-2a14.67,14.67,0,0,1-1.71-1c-.59-.28-1.13-.69-1.7-1-1.42-.77-2.78-1.63-4.2-2.39a6.79,6.79,0,0,0-1-.6,8.14,8.14,0,0,1-1.1-.65c-.34-.2-.67-.41-1-.59a14.14,14.14,0,0,0-1.37-.77,1.67,1.67,0,0,1-.43-.25,13,13,0,0,0-1.53-.89,13,13,0,0,0-1.54-.88,2.33,2.33,0,0,1-.5-.31,6.71,6.71,0,0,0-.68-.4c-.81-.49-1.67-.91-2.48-1.42-.47-.3-1-.55-1.43-.85s-.9-.54-1.36-.81a16,16,0,0,0-1.46-.82c-.37-.16-.65-.44-1-.62s-.69-.38-1-.57l-1.55-.86-.18-.08c-1.26-.91-2.69-1.53-4-2.38-.69-.36-1.35-.75-2-1.17s-1.38-.76-2.07-1.16a8,8,0,0,0-1.37-.77,9.66,9.66,0,0,0-1.34-.83c-1.41-.78-2.78-1.63-4.2-2.4-.51-.28-1-.61-1.53-.89s-1.13-.67-1.7-1c-.74-.42-1.49-.83-2.21-1.29-.39-.25-.82-.42-1.21-.67-.78-.48-1.62-.87-2.37-1.41-.91-.4-1.71-1-2.58-1.44-.67-.35-1.3-.76-2-1.14l-1-.57c-.64-.34-1.25-.73-1.87-1.09l-1.61-1-1.54-.88c-.71-.42-1.43-.81-2.13-1.24-.13-.09-.3-.13-.43-.22S-509.75-167.07-509.86-167.25Z" transform="translate(596 194.18)" style="fill:#fa4c2a"/><path d="M-509.63-29.25V-55.11a2.14,2.14,0,0,0-.18-1c.53-.32,1.09-.6,1.61-.94a13,13,0,0,1,1.22-.66c.59-.29,1.12-.69,1.7-1s1.08-.63,1.62-.94c.34-.19.7-.37,1-.58a5.84,5.84,0,0,1,1-.52,1.3,1.3,0,0,0,.26-.14,8.73,8.73,0,0,1,1.18-.7c.38-.19.73-.46,1.1-.65.73-.38,1.4-.87,2.15-1.21.52-.42,1.17-.6,1.69-1a6.71,6.71,0,0,1,1.19-.69c.81-.44,1.58-1,2.38-1.39s1.59-.93,2.39-1.39a7.33,7.33,0,0,0,1.19-.68c.59-.23,1.07-.64,1.63-.92s1-.57,1.45-.83c.7-.37,1.38-.78,2.05-1.19,1-.58,1.95-1.1,2.9-1.68s2-1.14,3-1.71c.11-.06.21-.15.32-.22a.52.52,0,0,0,.24-.41v-4.2a.44.44,0,0,0-.29-.46.67.67,0,0,1-.18-.07c-1.42-.83-2.83-1.68-4.26-2.49a16.38,16.38,0,0,0-1.72-1,.57.57,0,0,1-.16-.11.22.22,0,0,1,0-.31l0,0c.73-.44,1.46-.89,2.2-1.32l4.28-2.45c1.77-1,3.56-2,5.31-3,1.16-.68,2.34-1.35,3.51-2,1-.55,1.92-1.15,2.89-1.7s2.21-1.3,3.31-1.94c.43-.25.86-.48,1.3-.7a.51.51,0,0,1,.48,0L-457.7-96c1,.55,1.95,1.1,2.91,1.66.43.25.85.5,1.27.77a.4.4,0,0,1,.19.33V-62.6c0,.82.08.84-.78,1.26-.53.26-1,.6-1.54.89-1.09.61-2.18,1.21-3.25,1.86s-2,1.1-2.9,1.7-1.65.94-2.48,1.42L-468.46-53a2.86,2.86,0,0,1-.69.37,1.14,1.14,0,0,0-.34.19c-.51.38-1.08.62-1.62,1s-1.11.58-1.62.93-1.2.68-1.79,1-1.19.71-1.8,1a4.82,4.82,0,0,1-1,.6c-1,.57-1.93,1.13-2.9,1.69l-.51.28a2.64,2.64,0,0,0-.44.23,23.86,23.86,0,0,1-2.54,1.5c-.43.25-.84.53-1.27.75-.9.48-1.71,1.12-2.65,1.51-.64.47-1.39.75-2,1.22a13.63,13.63,0,0,1-1.29.72,7.53,7.53,0,0,1-1.55.85,23.41,23.41,0,0,1-2.46,1.46,23.53,23.53,0,0,1-2.4,1.36,22.64,22.64,0,0,1-2.46,1.45c-1.48.87-3,1.72-4.44,2.57s-2.79,1.62-4.19,2.43A11.13,11.13,0,0,1-509.63-29.25Z" transform="translate(596 194.18)" style="fill:#5564bf"/><path d="M-510-99.17l.2-.21a.46.46,0,0,0,.18-.34V-126q.27.1.54.24l5.21,3c1.14.64,2.27,1.31,3.41,2a17.55,17.55,0,0,1,1.8,1c.59.3,1.11.71,1.7,1,.82.41,1.59.91,2.39,1.37s1.58,1,2.39,1.38c1.13.6,2.19,1.33,3.33,1.91.62.32,1.19.71,1.8,1s1.16.76,1.78,1,1.14.78,1.81,1l.17.11a17.89,17.89,0,0,0,2,1.23c.2.11.39.24.58.36l.52.28.44.22c.76.46,1.52.91,2.28,1.38a3.24,3.24,0,0,0,.87.44.71.71,0,0,1,.18.08,19.74,19.74,0,0,0,1.76,1.08c.33.27.77.36,1.1.66.65.24,1.14.78,1.8,1,.92.64,2,1.06,2.88,1.7.68.28,1.22.78,1.88,1.07.22.1.54.19.52.52s-.27.38-.47.47c-.8.38-1.54.88-2.31,1.31s-1.52.92-2.31,1.34-1.7,1-2.56,1.47-1.48.86-2.22,1.29c-.28.17-.58.31-.86.47-.88.52-1.74,1.07-2.64,1.55-1.39.74-2.73,1.59-4.1,2.36-.92.51-1.84,1-2.73,1.58a25.06,25.06,0,0,1-2.49,1.42.63.63,0,0,1-.65,0l-1.28-.74a5.49,5.49,0,0,0-1-.5,1.4,1.4,0,0,1-.43-.24c-.67-.49-1.41-.85-2.11-1.28a5.86,5.86,0,0,0-.78-.42,2.58,2.58,0,0,1-.51-.29,1.4,1.4,0,0,0-.32-.22c-.47-.24-.91-.52-1.36-.79s-.87-.47-1.3-.72-.54-.37-.84-.51c-.71-.34-1.35-.81-2-1.19s-1.33-.72-2-1.1c-1-.56-1.91-1.16-2.88-1.7s-1.83-1.05-2.73-1.58A2.4,2.4,0,0,0-510-99.17Z" transform="translate(596 194.18)" style="fill:#5564bf"/><path d="M-484.82-77.66v.09l-.22.19-1.77,1.08c-.2.11-.43.18-.62.3-1.26.77-2.58,1.45-3.83,2.25a16.3,16.3,0,0,1-1.55.85c-.11.06-.24.11-.35.18-.92.63-1.92,1.14-2.86,1.73-.39.25-.81.44-1.21.67-.83.47-1.63,1-2.46,1.45-.49.27-1,.57-1.46.81a10.5,10.5,0,0,0-1.45.84c-.7.44-1.42.82-2.13,1.23l-1.87,1.1-1.34.72H-508a9.68,9.68,0,0,1-1.81,1,15.83,15.83,0,0,1-1.8-1,16.58,16.58,0,0,1-1.87-1.09,11.89,11.89,0,0,0-1.2-.68c-1.46-.82-2.91-1.67-4.35-2.52-.59-.36-1.21-.67-1.81-1l-2.47-1.43-4.27-2.49-1.54-.88-1.36-.79-2-1.13-2.22-1.29a.64.64,0,0,1-.13-.15.15.15,0,0,1,0-.18c.05,0,.08-.12.14-.14a11.69,11.69,0,0,0,1.54-.87,5.81,5.81,0,0,1,.94-.53,5.86,5.86,0,0,0,.92-.57c.41-.26.86-.46,1.29-.7a10.52,10.52,0,0,1,1.47-.81.59.59,0,0,0,.17-.1,9.56,9.56,0,0,1,1.33-.83l1.37-.79c.63-.35,1.26-.7,1.88-1.06s1.08-.64,1.61-1a16.42,16.42,0,0,1,1.86-1,1,1,0,0,0,.17-.1c1.34-.9,2.8-1.59,4.16-2.46.65-.24,1.18-.71,1.8-1s1.12-.69,1.7-1c.84-.46,1.67-.92,2.47-1.44a.25.25,0,0,1,.36,0,2.69,2.69,0,0,0,.91.57c.09,0,.17.1.26.15,1.06.66,2.16,1.25,3.23,1.88.65.38,1.33.72,2,1.15a5.86,5.86,0,0,0,.78.42c.72.39,1.38.88,2.14,1.22.9.66,1.93,1.12,2.89,1.69,1.29.78,2.59,1.54,3.93,2.25.63.47,1.39.74,2,1.23a7.22,7.22,0,0,0,.77.43,7.92,7.92,0,0,1,1,.57c.3.19.62.37.94.53.49.25.95.58,1.44.85s.83.53,1.25.77.83.42,1.23.64C-484.86-77.78-484.85-77.71-484.82-77.66Z" transform="translate(596 194.18)" style="fill:#fa4c2a"/><path d="M-509.83-56c-.19,0-.35,0-.4-.24A.52.52,0,0,1-509.83-56Z" transform="translate(596 194.18)" style="fill:#5564bf"/></svg>