<?xml version="1.0" standalone="no"?>
<!DOCTYPE svg PUBLIC "-//W3C//DTD SVG 20010904//EN"
 "http://www.w3.org/TR/2001/REC-SVG-20010904/DTD/svg10.dtd">
<svg version="1.0" xmlns="http://www.w3.org/2000/svg"
 width="1000.000000pt" height="1000.000000pt" viewBox="0 0 1000.000000 1000.000000"
 preserveAspectRatio="xMidYMid meet">
<metadata>
Created by potrace 1.11, written by Peter Selinger 2001-2013
</metadata>
<g transform="translate(0.000000,1000.000000) scale(0.100000,-0.100000)"
fill="#000000" stroke="none">
<path d="M4968 9942 c-41 -27 -160 -96 -188 -109 -14 -7 -43 -24 -65 -38 -22
-14 -56 -34 -75 -43 -19 -10 -54 -30 -77 -45 -24 -15 -67 -40 -95 -56 -29 -15
-82 -46 -118 -67 -36 -22 -76 -45 -90 -52 -14 -7 -50 -28 -80 -47 -30 -19 -68
-41 -85 -49 -16 -9 -57 -31 -90 -51 -33 -19 -67 -38 -75 -42 -8 -3 -34 -19
-57 -35 -23 -15 -53 -32 -66 -37 -14 -5 -57 -30 -96 -55 -39 -25 -75 -46 -79
-46 -4 0 -43 -23 -87 -50 -44 -28 -83 -50 -88 -50 -5 0 -27 -13 -50 -29 -41
-28 -116 -71 -206 -118 -24 -12 -50 -28 -57 -34 -15 -12 -37 -25 -126 -73 -29
-16 -55 -31 -58 -35 -3 -3 -21 -14 -40 -25 -146 -79 -135 -72 -208 -119 -24
-15 -53 -32 -65 -37 -22 -10 -39 -20 -88 -52 -14 -10 -29 -15 -33 -11 -3 3 -6
1 -6 -5 0 -6 -21 -22 -47 -35 -73 -37 -117 -61 -123 -67 -13 -14 -154 -90
-166 -90 -8 0 -14 -4 -14 -9 0 -10 -137 -91 -155 -91 -7 0 -18 -7 -25 -15 -7
-8 -24 -21 -39 -29 -14 -8 -46 -25 -71 -38 -25 -13 -64 -36 -87 -51 -24 -15
-67 -40 -95 -56 -29 -15 -83 -47 -121 -70 -37 -22 -71 -41 -75 -41 -4 -1 -38
-21 -77 -45 -38 -25 -83 -51 -100 -60 -16 -8 -55 -29 -86 -47 -89 -52 -191
-111 -221 -128 -15 -8 -54 -30 -85 -49 -32 -19 -76 -44 -98 -57 -22 -12 -55
-30 -72 -40 l-33 -19 0 -1517 c0 -1102 3 -1518 11 -1518 6 0 31 14 56 30 24
17 49 30 55 30 6 0 19 6 27 13 23 19 141 87 151 87 5 0 15 6 22 13 12 12 70
46 148 89 19 10 53 30 75 43 22 14 56 33 75 43 19 9 57 32 85 50 27 17 55 32
62 32 7 0 13 4 13 9 0 5 9 13 21 16 11 4 40 20 63 36 24 15 54 33 67 39 23 10
35 16 89 51 14 9 45 27 70 41 25 14 106 60 180 103 74 44 149 86 165 95 17 9
56 32 88 51 131 77 154 90 194 110 23 11 48 25 55 32 7 7 24 18 38 25 37 19
130 72 209 120 39 23 73 42 76 42 3 0 41 23 85 50 44 28 83 50 87 50 3 0 40
21 81 46 40 26 93 57 115 69 23 12 58 32 77 43 38 23 71 41 165 92 33 18 62
35 65 38 3 4 21 16 40 26 97 53 120 66 183 104 37 23 70 42 74 42 3 0 30 16
59 35 29 19 76 47 104 63 75 39 90 48 103 61 6 6 19 11 28 11 10 0 19 3 21 8
4 10 143 92 156 92 5 0 15 7 22 16 8 8 27 21 44 29 35 16 101 54 199 113 37
23 74 42 81 42 8 0 16 4 18 9 3 8 135 91 145 91 3 0 42 21 87 48 44 26 95 55
111 64 34 19 23 23 166 -61 48 -28 89 -51 92 -51 3 0 34 -18 68 -40 35 -22 75
-46 89 -53 14 -7 56 -30 94 -52 37 -22 94 -55 125 -73 31 -18 68 -37 84 -43
15 -6 27 -15 27 -20 0 -4 19 -17 43 -28 23 -12 65 -34 92 -51 28 -16 59 -34
70 -40 11 -6 36 -20 55 -31 19 -12 59 -35 88 -50 28 -16 71 -41 95 -56 23 -15
60 -36 82 -48 52 -27 86 -47 105 -62 8 -6 46 -28 85 -48 38 -20 79 -45 91 -56
11 -10 26 -19 32 -19 7 0 31 -12 55 -27 23 -15 53 -33 67 -40 14 -7 48 -26 75
-43 28 -16 69 -39 93 -51 23 -12 42 -25 42 -30 0 -5 3 -8 8 -7 9 3 72 -31 90
-48 7 -8 18 -14 23 -14 6 0 33 -15 62 -33 29 -18 59 -36 67 -40 24 -11 116
-64 162 -94 24 -15 61 -37 83 -49 22 -11 57 -30 78 -42 21 -11 45 -26 53 -33
8 -7 36 -23 62 -36 26 -13 65 -34 87 -48 22 -13 47 -27 55 -31 8 -4 33 -19 55
-34 22 -14 51 -31 65 -38 14 -6 81 -44 150 -84 l125 -73 3 -957 2 -956 -52
-26 c-29 -15 -89 -49 -133 -76 -44 -28 -83 -50 -87 -50 -4 0 -26 -13 -50 -29
-24 -16 -66 -42 -94 -57 -29 -16 -78 -45 -110 -64 -33 -19 -77 -44 -99 -56
-44 -23 -261 -148 -285 -164 -8 -6 -26 -16 -40 -22 -14 -7 -43 -24 -65 -38
-22 -14 -51 -31 -65 -38 -14 -7 -43 -23 -65 -37 -22 -14 -60 -36 -85 -48 -25
-13 -75 -42 -111 -65 -36 -23 -70 -42 -74 -42 -4 0 -31 -15 -59 -34 -28 -18
-81 -50 -118 -69 -37 -20 -87 -48 -109 -63 -40 -25 -90 -53 -167 -95 -18 -9
-39 -22 -46 -28 -7 -6 -35 -23 -62 -38 -84 -45 -97 -53 -164 -94 -36 -23 -78
-47 -95 -55 -16 -8 -48 -25 -70 -39 -22 -14 -56 -34 -75 -43 -19 -10 -55 -30
-79 -46 -76 -49 -230 -136 -241 -136 -5 0 -10 -4 -10 -9 0 -5 -10 -13 -22 -17
-12 -3 -45 -22 -74 -40 -29 -19 -57 -34 -63 -34 -5 0 -36 -17 -68 -38 -32 -21
-86 -54 -120 -72 l-62 -34 -30 22 c-17 12 -34 22 -38 22 -5 0 -32 15 -60 34
-29 19 -62 37 -73 41 -11 3 -20 11 -20 16 0 5 -7 9 -14 9 -8 0 -35 13 -59 30
-24 16 -56 34 -70 39 -15 6 -27 15 -27 21 0 5 -7 10 -16 10 -8 0 -39 15 -67
33 -29 18 -72 44 -97 57 -25 13 -64 36 -87 52 -23 15 -45 28 -49 28 -4 0 -41
21 -83 48 -42 26 -92 55 -111 64 -19 10 -53 29 -75 43 -22 14 -51 31 -65 38
-14 6 -56 30 -94 52 -109 64 -149 87 -181 104 -16 9 -69 40 -116 69 -48 28
-89 52 -92 52 -3 0 -34 18 -68 40 -35 22 -80 47 -99 56 -19 9 -48 26 -65 38
-16 12 -41 27 -55 34 -26 13 -106 57 -150 82 -14 8 -32 21 -41 27 -8 7 -38 25
-65 39 -67 36 -113 61 -154 85 -19 12 -82 48 -140 81 -58 33 -106 64 -108 69
-2 5 -10 9 -18 9 -8 0 -39 15 -68 33 -28 17 -61 37 -72 44 -10 7 -41 24 -69
39 -27 14 -69 39 -93 55 -24 16 -46 29 -50 29 -4 0 -27 14 -52 31 -25 16 -54
35 -65 40 -11 6 -47 25 -80 42 l-60 33 -5 778 c-3 541 -8 780 -16 783 -6 2
-21 -6 -34 -17 -13 -11 -27 -20 -31 -20 -4 0 -28 -13 -52 -30 -25 -16 -52 -30
-60 -30 -8 0 -20 -7 -27 -16 -8 -8 -27 -22 -44 -30 -40 -18 -97 -51 -166 -95
-30 -19 -72 -43 -92 -52 -20 -10 -60 -33 -89 -52 -29 -19 -56 -32 -61 -29 -4
3 -8 0 -8 -5 0 -11 -15 -19 -116 -71 -27 -14 -51 -28 -54 -31 -5 -7 -44 -29
-129 -75 -25 -14 -75 -43 -110 -65 -34 -21 -67 -39 -72 -39 -5 0 -9 -328 -9
-787 l0 -788 35 -23 c19 -12 39 -22 43 -22 5 0 17 -9 27 -20 10 -11 24 -20 30
-20 18 0 155 -81 155 -91 0 -5 7 -9 15 -9 9 0 47 -19 85 -42 79 -48 78 -48
175 -102 39 -22 73 -44 77 -50 4 -6 8 -7 8 -3 0 5 13 -1 29 -12 16 -12 34 -21
40 -21 6 0 11 -4 11 -9 0 -5 15 -14 33 -22 17 -7 50 -24 72 -38 22 -14 47 -30
57 -36 17 -10 122 -67 171 -92 15 -8 27 -18 27 -22 0 -4 17 -15 38 -24 42 -19
118 -61 137 -77 7 -6 32 -21 56 -33 89 -47 165 -90 207 -118 24 -16 46 -29 50
-29 4 0 43 -22 87 -50 44 -27 83 -50 87 -50 4 0 40 -21 79 -46 39 -25 82 -50
96 -55 13 -5 43 -22 66 -37 23 -16 49 -32 57 -36 8 -4 29 -15 45 -24 129 -72
171 -97 175 -101 3 -3 21 -14 40 -24 51 -27 89 -48 171 -97 41 -24 92 -54 115
-66 22 -12 61 -35 85 -50 24 -16 56 -34 71 -41 15 -6 54 -30 88 -52 34 -23 67
-41 74 -41 6 0 17 -5 22 -10 14 -14 73 -48 107 -61 15 -6 27 -15 27 -20 0 -5
5 -9 10 -9 6 0 36 -16 66 -35 30 -19 58 -35 63 -35 4 0 37 -19 72 -41 35 -23
97 -59 139 -81 41 -22 77 -43 80 -47 3 -3 19 -13 35 -21 17 -8 48 -26 70 -40
60 -37 77 -47 115 -68 19 -10 57 -31 84 -45 27 -15 55 -32 62 -38 7 -6 28 -19
46 -28 75 -41 127 -70 191 -109 37 -23 70 -42 74 -42 3 0 27 -13 53 -29 l48
-29 33 22 c19 12 52 32 74 43 78 40 110 58 115 64 3 4 23 16 45 28 22 12 61
34 86 49 111 65 186 108 209 119 14 7 43 24 65 38 22 14 56 33 75 43 19 9 69
38 111 65 42 26 78 47 82 47 3 0 42 22 86 50 44 27 84 50 88 50 5 1 40 21 78
45 39 25 81 50 94 55 13 6 44 24 68 40 24 17 50 30 58 30 7 0 15 4 17 8 2 5
34 26 73 48 38 21 77 44 87 49 73 43 157 92 178 103 38 19 66 36 82 50 8 6 17
10 20 7 3 -3 13 4 23 15 10 11 24 20 31 20 7 0 33 14 57 30 25 17 48 30 51 30
4 0 16 9 28 20 12 11 28 20 37 20 8 0 22 6 30 14 9 8 39 26 66 41 28 14 64 34
80 44 17 10 73 43 125 73 52 31 140 82 195 113 55 32 119 69 143 82 23 12 66
38 95 56 28 18 66 40 82 49 47 25 127 70 201 113 38 22 80 45 94 52 14 7 54
31 89 53 34 22 66 40 70 40 3 0 42 23 86 50 44 28 83 50 87 50 4 0 38 19 75
43 38 24 100 61 138 82 39 22 79 45 90 52 11 7 31 18 45 25 14 7 44 25 67 40
23 15 48 28 57 28 8 0 19 6 23 13 8 14 17 20 110 67 26 13 56 30 65 38 9 7 36
24 60 37 l43 23 3 1638 2 1639 -47 30 c-26 17 -56 33 -66 38 -11 4 -52 28 -92
52 -39 25 -74 45 -77 45 -3 0 -35 18 -69 40 -35 22 -75 46 -89 52 -14 7 -56
30 -93 53 -113 66 -181 105 -207 116 -13 6 -27 14 -30 18 -5 8 -82 52 -142 83
-21 10 -38 23 -38 28 0 6 -6 10 -14 10 -17 0 -156 80 -156 90 0 3 -6 7 -12 7
-7 0 -55 24 -105 54 -51 30 -110 64 -130 76 -21 12 -60 34 -88 48 -27 15 -57
32 -65 40 -8 7 -25 16 -37 19 -13 4 -23 11 -23 16 0 5 -10 12 -22 16 -13 4
-41 19 -63 33 -22 14 -51 31 -65 38 -14 7 -38 21 -55 31 -16 10 -61 36 -100
57 -38 20 -90 51 -114 67 -25 17 -55 34 -68 39 -12 4 -41 21 -65 36 -61 39
-81 51 -98 59 -8 4 -52 29 -96 55 -45 27 -85 49 -89 49 -3 0 -26 13 -50 30
-24 16 -54 34 -67 40 -13 5 -32 16 -43 22 -71 45 -126 78 -133 78 -4 0 -43 23
-87 50 -44 28 -83 50 -87 50 -4 0 -42 22 -85 50 -43 27 -81 50 -86 50 -4 0
-44 23 -88 50 -44 28 -83 50 -85 50 -3 0 -36 19 -75 43 -105 63 -181 106 -209
118 -14 5 -29 15 -35 22 -5 7 -30 22 -55 34 -62 31 -134 72 -200 114 -30 19
-67 40 -81 46 -14 6 -52 28 -85 49 -32 21 -79 49 -104 62 -25 13 -57 30 -71
38 -15 8 -32 21 -39 29 -7 8 -20 15 -29 15 -10 0 -26 8 -37 18 -18 18 -20 18
-74 -10 -30 -16 -84 -47 -119 -68 -34 -22 -66 -40 -70 -40 -3 0 -42 -23 -86
-50 -44 -28 -83 -50 -87 -50 -4 0 -40 -21 -79 -46 -40 -25 -79 -48 -88 -52
-14 -5 -55 -29 -136 -79 -11 -7 -40 -23 -65 -37 -76 -40 -126 -69 -199 -113
-39 -24 -72 -43 -75 -43 -2 0 -40 -22 -83 -48 -43 -26 -89 -53 -103 -60 -26
-13 -39 -20 -107 -64 -23 -16 -45 -28 -50 -28 -5 0 -44 -22 -88 -50 -44 -27
-84 -50 -89 -50 -5 0 -17 -6 -25 -14 -9 -8 -38 -26 -66 -40 -27 -15 -59 -32
-69 -39 -11 -7 -44 -27 -72 -44 -29 -18 -56 -33 -59 -33 -3 0 -41 -22 -85 -50
-44 -27 -86 -50 -94 -50 -8 0 -16 -4 -18 -8 -5 -13 -95 -62 -102 -55 -3 3 -6
2 -6 -4 0 -11 -149 -100 -158 -95 -2 2 -8 -1 -11 -6 -6 -10 -56 -40 -130 -79
-24 -12 -49 -27 -57 -34 -7 -6 -28 -19 -46 -28 -90 -49 -133 -74 -138 -80 -5
-6 -16 -12 -120 -68 -25 -13 -63 -35 -85 -48 -22 -14 -62 -37 -90 -51 -27 -15
-62 -35 -77 -45 -14 -11 -29 -19 -32 -19 -3 0 -6 74 -6 164 l0 164 37 22 c125
75 224 130 233 130 5 0 10 4 10 9 0 5 10 13 22 17 12 3 45 22 74 40 29 19 57
34 61 34 4 0 43 23 86 50 43 28 81 50 84 50 3 0 42 23 88 50 46 28 85 50 89
50 3 0 40 21 83 48 89 54 124 74 173 99 19 10 37 21 40 24 5 6 92 55 155 88
17 8 36 21 43 28 7 7 18 13 24 13 6 0 19 6 27 14 9 8 40 27 70 43 57 30 64 34
128 76 24 15 46 27 50 27 4 0 46 25 94 55 48 30 89 55 92 55 4 0 29 14 57 30
28 17 57 30 65 30 8 0 15 4 15 9 0 11 138 91 156 91 8 0 14 4 14 8 0 5 12 15
28 23 15 7 46 26 69 41 23 15 48 28 56 28 8 0 21 7 28 16 7 9 22 20 34 25 21
9 88 47 191 109 33 19 76 44 97 55 21 11 95 53 165 94 70 41 146 85 170 98 24
12 60 34 80 48 20 14 40 25 44 25 4 0 24 11 44 25 40 27 30 30 139 -35 28 -17
66 -38 85 -48 19 -10 54 -30 78 -45 23 -15 73 -44 110 -64 37 -19 90 -51 118
-69 28 -19 55 -34 59 -34 4 0 38 -19 74 -42 36 -23 86 -52 111 -65 25 -12 63
-34 85 -48 22 -14 51 -30 65 -37 14 -7 43 -24 65 -38 22 -14 51 -31 65 -38 14
-6 32 -16 40 -22 25 -17 242 -141 296 -170 28 -15 64 -35 80 -46 51 -33 68
-44 91 -54 12 -5 41 -22 65 -37 44 -28 51 -32 128 -75 25 -14 67 -38 94 -54
61 -36 140 -81 188 -105 20 -10 38 -22 40 -26 1 -5 34 -24 73 -43 38 -19 76
-42 85 -50 9 -8 23 -16 30 -18 7 -2 32 -16 56 -32 23 -17 49 -30 57 -30 8 0
20 -7 27 -15 7 -8 17 -15 23 -15 6 0 18 -6 26 -14 9 -8 48 -31 86 -51 39 -21
81 -46 94 -56 13 -11 30 -19 37 -19 8 0 14 -4 14 -9 0 -5 10 -13 23 -17 12 -4
46 -22 75 -40 29 -19 56 -34 61 -34 5 0 16 -6 23 -12 13 -12 27 -20 125 -73
22 -12 75 -43 115 -69 41 -25 78 -46 82 -46 3 0 43 -22 87 -50 44 -27 83 -50
85 -50 3 0 36 -19 75 -42 103 -63 181 -107 209 -119 13 -6 27 -14 30 -18 3 -4
46 -29 95 -56 50 -27 92 -52 93 -57 2 -4 8 -8 13 -8 6 0 35 -16 65 -35 30 -19
58 -35 62 -35 4 0 43 -22 87 -50 44 -27 84 -50 88 -50 5 0 21 -8 35 -19 15
-10 44 -28 65 -40 l37 -21 0 678 0 677 -96 55 c-53 30 -113 65 -133 78 -20 12
-47 28 -61 35 -71 35 -160 90 -160 98 0 5 -7 9 -16 9 -8 0 -80 38 -159 85 -79
47 -147 85 -150 85 -4 0 -25 12 -48 28 -73 47 -81 52 -112 66 -16 8 -59 32
-95 55 -60 37 -97 58 -187 105 -18 10 -35 21 -38 26 -3 4 -26 18 -53 31 -26
12 -49 26 -52 30 -3 4 -22 14 -42 22 -21 9 -38 21 -38 26 0 6 -7 11 -15 11 -9
0 -34 12 -58 27 -23 15 -53 34 -67 41 -14 7 -34 18 -45 25 -11 7 -47 27 -80
46 -33 19 -92 54 -131 78 -39 23 -74 43 -77 43 -4 0 -43 23 -88 51 -44 27 -90
54 -102 59 -12 5 -47 25 -77 45 -30 19 -73 44 -95 55 -56 28 -125 68 -140 80
-7 6 -35 22 -61 36 -27 14 -62 33 -79 42 -16 9 -53 30 -81 48 -27 18 -75 46
-105 62 -30 16 -106 60 -169 97 -63 37 -140 81 -170 98 -30 16 -66 37 -80 46
-49 32 -65 41 -80 48 -31 14 -256 146 -271 159 -8 8 -21 14 -27 14 -6 0 -42
19 -79 42 -38 22 -81 49 -98 58 -42 24 -139 80 -194 113 -25 15 -60 34 -77 42
-17 7 -36 21 -44 29 -7 9 -20 16 -29 16 -9 0 -22 5 -28 11 -12 12 -36 26 -88
53 -16 9 -43 25 -60 35 -37 24 -43 24 -77 3z"/>
<path d="M4995 6581 c-6 -5 -41 -26 -80 -46 -38 -21 -83 -47 -99 -58 -16 -11
-52 -32 -80 -47 -80 -42 -121 -65 -126 -70 -10 -10 -151 -89 -170 -95 -11 -4
-20 -10 -20 -15 0 -5 -10 -12 -22 -16 -13 -4 -41 -19 -63 -34 -22 -15 -50 -30
-62 -34 -13 -4 -29 -13 -36 -19 -15 -14 -45 -32 -113 -68 -28 -15 -80 -45
-116 -68 -36 -23 -69 -41 -73 -41 -4 0 -31 -15 -59 -34 -28 -18 -82 -50 -121
-71 -38 -20 -77 -43 -86 -51 -8 -8 -23 -14 -31 -14 -9 0 -18 -3 -20 -8 -4 -10
-143 -92 -156 -92 -5 0 -15 -6 -21 -14 -11 -13 -55 -39 -146 -85 -16 -8 -36
-21 -43 -28 -7 -7 -18 -13 -23 -13 -5 0 -28 -13 -51 -30 -22 -16 -49 -30 -60
-30 -10 0 -18 -4 -18 -8 0 -5 -12 -15 -27 -23 -16 -7 -47 -26 -70 -41 -23 -15
-46 -28 -52 -28 -5 0 -27 -12 -48 -26 -21 -14 -47 -30 -58 -35 -11 -6 -42 -23
-70 -39 -27 -17 -70 -41 -95 -55 -25 -14 -54 -31 -64 -38 -65 -41 -126 -77
-131 -77 -3 0 -39 -20 -79 -45 -41 -25 -85 -50 -98 -55 -13 -6 -43 -23 -68
-38 l-45 -28 -3 -792 -2 -792 41 -25 c22 -15 48 -29 57 -33 9 -3 52 -28 95
-54 43 -26 81 -48 84 -48 3 0 34 -18 69 -40 35 -22 87 -53 116 -69 29 -15 67
-37 85 -47 130 -77 206 -121 253 -147 30 -16 66 -37 80 -47 14 -10 35 -21 48
-24 12 -4 22 -12 22 -17 0 -5 5 -9 10 -9 6 0 65 -32 133 -71 67 -40 147 -85
177 -102 30 -16 72 -40 92 -53 21 -14 63 -38 93 -54 30 -16 74 -42 98 -57 38
-24 76 -46 162 -91 17 -8 34 -21 38 -29 4 -7 14 -13 21 -13 15 0 159 -81 164
-92 2 -5 8 -8 13 -8 8 0 70 -35 139 -79 14 -8 27 -16 30 -16 6 -1 137 -77 192
-112 21 -12 42 -23 47 -23 5 0 14 -7 21 -15 6 -8 35 -26 63 -40 29 -14 70 -36
92 -49 53 -32 78 -46 150 -86 33 -18 62 -35 65 -39 3 -3 20 -14 38 -23 33 -17
34 -17 75 7 93 54 154 88 187 107 19 10 53 30 75 43 22 14 60 36 85 48 25 13
75 42 111 65 36 23 69 42 72 42 3 0 42 23 87 51 45 28 89 53 98 57 10 3 52 28
95 54 43 26 82 48 87 48 5 0 15 6 22 13 7 6 31 21 53 32 22 11 47 25 55 32 15
12 82 49 145 81 17 9 32 18 35 22 5 6 42 28 135 80 22 13 54 31 70 41 17 11
50 29 75 42 25 12 72 40 104 61 33 21 71 43 85 49 14 6 33 16 41 22 8 7 35 23
60 36 25 13 47 27 50 30 3 3 20 13 38 22 78 41 92 49 97 58 4 5 15 9 25 9 10
0 20 3 22 8 2 4 35 26 73 48 39 23 109 65 156 93 48 28 89 51 93 51 3 0 40 21
83 48 89 54 124 74 173 99 19 10 37 21 40 24 3 4 34 22 70 42 l65 35 0 798 0
798 -45 27 c-25 15 -65 38 -90 51 -25 13 -78 44 -119 68 l-74 43 -43 -16 c-24
-8 -75 -36 -113 -61 -38 -25 -77 -46 -85 -46 -8 0 -16 -3 -18 -8 -1 -4 -37
-27 -78 -51 -41 -25 -97 -57 -123 -73 -26 -15 -53 -29 -60 -31 -7 -1 -14 -5
-17 -8 -5 -6 -33 -23 -130 -78 -25 -13 -47 -28 -50 -31 -3 -4 -18 -14 -35 -22
-51 -27 -130 -71 -191 -108 -62 -37 -103 -60 -178 -99 -48 -26 -58 -47 -28
-58 9 -3 24 -12 32 -19 14 -12 45 -30 150 -86 19 -10 58 -32 85 -48 l50 -28 3
-111 3 -111 -48 -30 c-26 -17 -50 -30 -54 -30 -5 0 -43 -22 -86 -50 -43 -27
-81 -50 -85 -50 -3 0 -43 -22 -87 -50 -44 -28 -84 -50 -88 -50 -5 -1 -39 -21
-78 -45 -38 -25 -81 -50 -94 -55 -13 -6 -44 -24 -68 -40 -24 -17 -48 -30 -53
-30 -5 0 -28 -13 -52 -29 -24 -16 -65 -41 -93 -56 -27 -14 -72 -40 -99 -56
-27 -17 -78 -46 -115 -65 -36 -20 -73 -42 -82 -50 -9 -8 -18 -12 -21 -9 -3 3
-13 -4 -23 -15 -10 -11 -24 -20 -31 -20 -7 0 -33 -13 -57 -30 -25 -16 -50 -30
-56 -30 -6 0 -11 -4 -11 -9 0 -5 -15 -14 -32 -21 -18 -8 -40 -19 -48 -26 -8
-7 -37 -24 -65 -39 -27 -14 -65 -35 -84 -46 -30 -18 -38 -19 -65 -8 -17 7 -33
16 -36 19 -5 6 -50 32 -145 85 -22 12 -65 37 -95 55 -30 18 -73 43 -95 55 -47
25 -227 129 -270 156 -16 11 -41 25 -55 32 -14 6 -56 30 -94 52 -37 22 -85 49
-105 61 -20 11 -81 47 -136 79 -167 98 -288 167 -320 183 -16 8 -43 25 -60 36
-35 24 -76 48 -123 70 -18 8 -46 25 -63 36 l-29 21 0 113 0 112 43 23 c23 13
60 33 82 46 22 12 62 34 89 49 27 14 54 31 61 36 18 15 92 56 143 80 23 10 42
23 42 27 0 5 12 14 28 20 34 15 86 45 184 106 41 26 82 47 90 47 8 0 23 8 34
18 22 19 51 37 109 67 22 12 63 36 90 53 28 17 56 32 63 32 6 0 12 4 12 9 0 5
10 13 23 17 12 4 44 22 72 40 27 19 58 34 68 34 10 0 20 7 23 15 4 8 10 15 14
15 5 0 30 13 57 29 26 15 93 54 148 85 55 31 107 61 115 67 49 31 59 32 87 13
15 -10 40 -24 55 -31 15 -6 54 -30 88 -52 34 -23 66 -41 71 -41 9 0 64 -32
135 -78 10 -6 29 -17 42 -22 13 -6 42 -23 65 -39 23 -15 52 -31 65 -35 12 -4
22 -12 22 -17 0 -5 6 -9 13 -9 6 0 35 -15 62 -32 28 -17 70 -43 95 -56 25 -13
57 -30 71 -38 15 -8 32 -21 39 -29 7 -8 20 -15 29 -15 9 0 40 -16 70 -35 l55
-35 65 37 c36 19 103 58 147 84 45 27 85 49 88 49 4 0 30 16 59 35 28 19 57
35 64 35 7 0 13 4 13 9 0 5 10 13 22 17 12 3 45 22 74 40 29 19 56 34 60 34 4
0 39 20 79 45 39 24 82 49 96 54 13 6 56 31 94 56 39 24 73 44 77 45 3 0 42
21 85 48 43 26 90 53 106 59 38 17 34 35 -14 64 -83 49 -135 78 -176 99 -24
12 -43 26 -43 31 0 5 -7 9 -15 9 -9 0 -34 12 -58 27 -23 15 -49 32 -59 38 -16
10 -121 67 -169 92 -15 7 -32 20 -39 28 -7 8 -17 15 -22 15 -13 0 -152 82
-156 92 -2 5 -10 8 -17 8 -7 0 -37 16 -66 35 -30 19 -57 35 -60 35 -4 0 -36
18 -70 40 -35 22 -75 46 -89 52 -14 7 -54 30 -90 52 -36 21 -88 52 -117 67
-83 45 -98 54 -103 61 -4 5 -48 30 -155 86 -16 9 -36 22 -43 29 -7 7 -17 13
-21 13 -8 0 -152 80 -161 90 -3 3 -21 14 -40 24 -19 11 -59 32 -87 48 -29 15
-77 44 -107 63 -30 19 -59 35 -64 35 -5 0 -28 14 -50 30 -47 34 -45 33 -57 21z"/>
<path d="M4959 4872 c-24 -16 -57 -35 -74 -44 -16 -9 -52 -28 -79 -42 -26 -14
-54 -30 -61 -36 -15 -12 -85 -52 -140 -80 -22 -11 -69 -38 -104 -60 -34 -22
-66 -40 -70 -40 -3 0 -41 -23 -84 -50 -43 -28 -81 -50 -85 -50 -5 0 -41 -21
-82 -46 -41 -26 -100 -60 -130 -77 -30 -17 -68 -39 -85 -49 -16 -10 -41 -24
-55 -31 -14 -7 -43 -24 -66 -39 -22 -14 -49 -27 -59 -30 -36 -6 -28 -34 17
-60 79 -46 223 -131 253 -149 17 -11 41 -25 55 -32 14 -6 56 -30 94 -52 130
-76 181 -105 214 -121 17 -9 32 -20 32 -25 0 -5 3 -8 8 -6 9 3 154 -83 164
-98 4 -5 8 -6 8 -2 0 8 10 3 65 -33 17 -11 37 -23 45 -26 21 -10 154 -87 160
-94 3 -3 29 -17 58 -32 l53 -27 57 30 c69 37 85 46 139 81 23 16 52 32 66 37
13 5 56 30 95 55 39 25 74 46 77 46 4 0 44 23 90 50 46 28 85 50 88 50 3 0 25
12 49 28 78 49 83 52 108 65 14 7 44 25 67 40 24 15 49 27 56 27 7 0 22 8 33
18 25 21 51 37 195 116 73 40 129 80 129 92 0 8 -12 17 -27 20 -16 4 -46 19
-68 33 -22 14 -51 31 -65 38 -14 7 -38 21 -55 31 -16 10 -55 32 -85 49 -30 17
-89 51 -130 77 -41 25 -77 46 -82 46 -4 0 -42 22 -85 50 -43 27 -81 50 -84 50
-4 0 -36 18 -70 40 -35 22 -80 48 -99 58 -89 47 -134 73 -145 82 -11 9 -41 26
-140 78 -16 8 -49 28 -72 44 -23 15 -43 28 -45 28 -2 0 -24 -13 -49 -28z"/>
</g>
</svg>
