<svg id="a306f661-92c0-41b2-b964-4006409132b3" data-name="Layer 1" xmlns="http://www.w3.org/2000/svg" viewBox="0 0 172.1 199.05"><title>icon</title><path d="M100.31,34.63a9.57,9.57,0,0,1,1.9,1c.92.44,1.71,1.11,2.67,1.48.27.11.48.36.74.48.6.28,1.13.69,1.71,1s1.07.63,1.62.93c1,.51,1.85,1.12,2.82,1.61.62.3,1.18.72,1.79,1,1,.54,2,1.21,3,1.71.47.23.91.52,1.36.79.7.44,1.43.81,2.13,1.24.93.56,1.89,1.08,2.82,1.63l1.36.8c.42.25.87.46,1.27.75a1.35,1.35,0,0,0,.26.15c1,.52,2,1.12,3,1.71l1.62.93,2,1.18L135,54.54c.64.33,1.25.73,1.87,1.09l1,.57c.64.33,1.22.78,1.88,1.08a1.85,1.85,0,0,1,.33.21c.53.4,1.18.59,1.69,1a2.8,2.8,0,0,1,.86.48c.15.11.34.19.51.29l.59.34c.09,0,.16.13.25.18a18,18,0,0,1,2.29,1.33c.64.2,1.08.77,1.73.93.94.67,2,1.1,2.95,1.78.62.24,1.09.75,1.73.94.53.45,1.24.6,1.77,1.06a6.73,6.73,0,0,0,1,.59l2.22,1.29c1.37.78,2.76,1.53,4.11,2.34l2.8,1.63,1.53.89c1.34.77,2.69,1.53,4,2.32,1.76,1,3.56,2,5.29,3.08.42.26.86.47,1.29.72,1.06.61,2.1,1.23,3.16,1.83,1.26.71,2.51,1.43,3.75,2.18.68.26,1.23.76,1.89,1l.33.22a.43.43,0,0,1,.2.32V149c0,.71.08.7-.67,1.15a10.93,10.93,0,0,0-1.76,1.08,10,10,0,0,0-1.21.65c-.38.2-.74.44-1.11.64a11.1,11.1,0,0,0-1,.61,4.54,4.54,0,0,1-.45.21,3.84,3.84,0,0,0-.35.18,13.58,13.58,0,0,1-2,1.2,7.1,7.1,0,0,1-1.28.74c-1.13.73-2.35,1.32-3.49,2-.64.4-1.33.71-1.95,1.14-.38.26-.81.44-1.2.68-.76.46-1.54.89-2.31,1.33l-2.48,1.43c-1.45.84-2.92,1.65-4.35,2.52l-1.54.88c-1.11.64-2.2,1.32-3.33,1.93-.81.44-1.6.91-2.39,1.38-1.51.88-3,1.72-4.54,2.6A28.43,28.43,0,0,1,146,172.9l-.17.1a14.42,14.42,0,0,1-1.69,1c-.56.35-1.16.63-1.71,1s-1.09.6-1.6,1a10.92,10.92,0,0,1-1.36.79c-.84.46-1.68.91-2.47,1.44-.51.15-.87.59-1.39.74a1.62,1.62,0,0,0-.41.27c-.19.12-.39.23-.59.34s-.19.07-.27.12a22.42,22.42,0,0,1-2.23,1.27c-.51.3-1,.65-1.51.94l-1.12.62a245747477712738.88,245747477712738.88,0,0,0-2.22,1.26,26.42,26.42,0,0,1-2.8,1.66c-1.2.68-2.36,1.43-3.58,2.08-.81.44-1.59.92-2.39,1.37l-1.28.73L115,190.87l-1.46.84c-1.13.67-2.28,1.31-3.41,2-.91.53-1.8,1.1-2.76,1.54-.88.64-1.88,1.07-2.8,1.66-.47.3-.95.58-1.44.85-.76.4-1.5.82-2.22,1.28-.2.12-.42.2-.62.3-.45-.51-.31-1.13-.31-1.7V175.93a12,12,0,0,0-.33-3.47,1.06,1.06,0,0,0,.76-.12c.59-.35,1.2-.68,1.8-1s1.31-.75,2-1.15,1-.55,1.54-.86,1-.58,1.44-.86l1.29-.72.35-.2c.54-.37,1.13-.65,1.7-1s1.14-.65,1.71-1a5.25,5.25,0,0,0,.49-.33,1.63,1.63,0,0,1,.52-.28,1.49,1.49,0,0,0,.43-.23c.86-.56,1.76-1,2.64-1.55.45-.26.9-.53,1.34-.83.92-.35,1.71-1,2.59-1.41.5-.25,1-.59,1.44-.86s.79-.47,1.19-.69c.92-.51,1.82-1.06,2.72-1.59.43-.25.84-.52,1.28-.74s.72-.46,1.11-.64.89-.55,1.35-.8.85-.49,1.29-.73a11.46,11.46,0,0,1,1.38-.75c.56-.47,1.28-.68,1.85-1.12.17-.1.34-.2.52-.29,1-.58,2-1.12,3-1.73.34-.2.69-.37,1-.57.88-.52,1.74-1.07,2.64-1.55,1.16-.63,2.26-1.34,3.42-2,1.38-.76,2.72-1.59,4.1-2.36s2.72-1.59,4.09-2.38l2.4-1.37c1.51-.87,3-1.76,4.53-2.61.92-.51,1.79-1.1,2.74-1.56.12-.06.22-.14.34-.21a.36.36,0,0,0,.18-.32V98a.52.52,0,0,0-.23-.42l-.41-.26L158.1,95l-2.9-1.7c-.31-.18-.63-.34-.94-.54a3.46,3.46,0,0,0-.94-.52c-.89-.64-1.9-1-2.81-1.65a12.25,12.25,0,0,0-1.36-.78c-.92-.52-1.79-1.11-2.74-1.56l-.17-.1c-.63-.48-1.36-.79-2-1.21s-1.35-.82-2-1.19c-.84-.46-1.65-1-2.47-1.44s-1.55-.87-2.29-1.35a10,10,0,0,1-1.62-.92l-1.55-.88-1.2-.67c-1.74-1-3.43-2.08-5.2-3-.41-.21-.79-.47-1.19-.7-1.62-.93-3.26-1.86-4.87-2.81-1.3-.76-2.62-1.5-3.92-2.29-1-.57-2-1.09-2.92-1.64-.45-.26-.9-.54-1.36-.8-.91-.51-1.8-1.09-2.72-1.59-.55-.3-1.07-.64-1.64-.91a12.88,12.88,0,0,1-1.44-.84c-.68-.41-1.36-.81-2.06-1.17S104.61,64,104,63.64c-.36-.22-.74-.42-1.11-.64-.88-.5-1.78-1-2.64-1.52a1,1,0,0,0-.29-.08c.15-8.46,0-16.91.07-25.36A1.42,1.42,0,0,1,100.31,34.63Z" transform="translate(-13.95 -0.51)" style="fill:#fa4c2a"/><path d="M100.31,34.63V60.54a.91.91,0,0,1-.39.86c-.24.16-.48.35-.73.49-1.18.66-2.34,1.35-3.5,2s-2.23,1.27-3.33,1.93c-.85.5-1.72,1-2.58,1.46-.48.28-1,.51-1.44.83-.68.47-1.44.79-2.15,1.21s-1.37.78-2,1.24c-.43.29-.91.51-1.37.76-.91.52-1.83,1-2.74,1.56a8.18,8.18,0,0,1-1.09.67c-.4.15-.74.42-1.12.6s-.85.5-1.28.74-1,.69-1.6,1-.9.54-1.37.77c-.65.33-1.23.76-1.87,1.09s-1.31.77-2,1.12c-.52.27-1,.61-1.53.9s-1.3.76-2,1.11a14.79,14.79,0,0,0-1.44.86c-.68.39-1.36.79-2.06,1.15s-1.18.72-1.78,1.07c-.33.2-.67.41-1,.58-.74.36-1.42.82-2.14,1.23s-1.38.76-2,1.18-1.44.79-2.12,1.25-1.36.81-2,1.18c-1.37.72-2.67,1.55-4,2.3S45,93.24,43.68,94c-.88.52-1.78,1-2.66,1.52-.72.4-1.42.83-2.13,1.25s-1.2.68-1.79,1a10.19,10.19,0,0,0-1.52.91,1,1,0,0,1-.26.16c-1.36.65-2.61,1.51-4,2.21-.93.69-2,1.12-3,1.75-.38.25-.79.45-1.17.73a5.7,5.7,0,0,0-.94.51c-.65.25-1.17.74-1.81,1-.24.09-.42.32-.66.43-1,.45-1.77,1.12-2.74,1.54a2.67,2.67,0,0,0-.51.31,1.44,1.44,0,0,1-.32.23,10.89,10.89,0,0,0-1.37.77c-.52.27-1,.61-1.53.88a6.06,6.06,0,0,1-1,.55.58.58,0,0,0-.25.15,9.85,9.85,0,0,1-1.61,1,.22.22,0,0,1-.28-.11h0V50.41a.46.46,0,0,1,.28-.48c.45-.19.83-.53,1.31-.69a1.85,1.85,0,0,0,.33-.21,1.38,1.38,0,0,1,.4-.28c.92-.44,1.75-1,2.66-1.5.56-.28,1.07-.65,1.62-.94s1.09-.62,1.62-.94c.74-.44,1.49-.84,2.22-1.29.5-.31,1-.58,1.53-.88s1.32-.76,2-1.13l2.56-1.48c.71-.41,1.45-.77,2.13-1.24.35-.25.75-.4,1.12-.62L35,38.06c.51-.29,1-.61,1.54-.88s1-.67,1.67-1a10.51,10.51,0,0,0,1.36-.83c.91-.38,1.71-1,2.58-1.44.6-.32,1.18-.7,1.77-1.06l.43-.24c1.15-.57,2.23-1.27,3.34-1.91.31-.18.64-.34.94-.53s.93-.49,1.36-.79.94-.49,1.35-.82c.49-.12.83-.52,1.29-.72s.86-.47,1.3-.7.89-.55,1.34-.81l2.3-1.34c.72-.41,1.42-.83,2.14-1.23s1.19-.69,1.78-1.05c.87-.53,1.76-1,2.65-1.52.54-.31,1.1-.59,1.62-.93.7-.44,1.42-.83,2.14-1.21.47-.25.9-.55,1.36-.81,1-.55,1.92-1.15,2.89-1.69.81-.44,1.6-.9,2.39-1.39.39-.24.79-.47,1.2-.68.78-.41,1.53-.89,2.3-1.32s1.84-1,2.74-1.56,1.87-1,2.79-1.63,1.93-1.13,2.9-1.69l2.91-1.67c.72-.41,1.43-.8,2.15-1.22s1.69-1,2.55-1.49c1.35-.75,2.65-1.59,4-2.3.58-.3,1.14-.67,1.71-1a.32.32,0,0,1,.44.11h0a2.6,2.6,0,0,1,.34,1.44V25.93c0,.54.1,1.15-.52,1.5-.78.42-1.56.84-2.33,1.28-1,.6-2,1.2-3.08,1.76-.6.32-1.18.72-1.78,1.06s-1,.58-1.54.87l-2,1.14-2.73,1.58c-.69.4-1.36.8-2,1.19a11.53,11.53,0,0,1-1.54.87c-.09,0-.17.1-.26.15-.43.29-.9.52-1.36.78s-.84.52-1.27.77-.69.37-1,.58a8,8,0,0,1-1,.53c-.92.56-1.9,1-2.8,1.65-.22.15-.47.23-.69.37s-.44.29-.67.42l-2.67,1.49-.25.16a11.55,11.55,0,0,1-1.69,1c-.55.3-1.06.66-1.64.91a2.3,2.3,0,0,0-.49.32,1.32,1.32,0,0,1-.51.3,2.26,2.26,0,0,0-.35.17,4.55,4.55,0,0,1-1,.63,6.67,6.67,0,0,1-1,.5,2.91,2.91,0,0,0-.42.25,3.53,3.53,0,0,1-.94.54,1,1,0,0,0-.17.1,6.62,6.62,0,0,1-1.35.81L57.4,52c-.66.38-1.29.8-2,1.16-.87.46-1.72,1-2.57,1.47a23.66,23.66,0,0,0-2.13,1.24,5.93,5.93,0,0,1-.86.46c-.65.33-1.22.79-1.89,1.08l-.17.1c-1.08.69-2.23,1.26-3.32,1.92-1.38.83-2.8,1.59-4.17,2.44-.51.31-1,.59-1.54.88l-.77.45a3.11,3.11,0,0,0-.89.58v6.42a2.54,2.54,0,0,0,0,.39.09.09,0,0,0,.1,0,.28.28,0,0,0,.18,0c1.31-.76,2.61-1.53,3.93-2.27S44,66.71,45.41,66c.91-.64,1.94-1.1,2.88-1.71a23.43,23.43,0,0,1,2.49-1.41,4.55,4.55,0,0,0,1-.63,5.66,5.66,0,0,0,1.2-.73c.4-.24.81-.44,1.21-.67.77-.44,1.55-.86,2.3-1.35.46-.3,1-.56,1.44-.84,1.17-.67,2.38-1.26,3.49-2,.41-.13.7-.49,1.13-.59a1.17,1.17,0,0,0,.34-.2c.36-.23.73-.44,1.11-.64s1-.6,1.52-.91a14.69,14.69,0,0,1,1.27-.76,15.35,15.35,0,0,0,1.63-.91c.63-.35,1.24-.74,1.86-1.1.29-.17.58-.31.86-.48a6.53,6.53,0,0,1,.86-.48,2.94,2.94,0,0,0,.5-.31c.87-.53,1.8-1,2.63-1.56.91-.38,1.67-1,2.59-1.39a5.25,5.25,0,0,0,.49-.33l.69-.39a2.33,2.33,0,0,0,.34-.2,12.11,12.11,0,0,1,1.62-.89,10.3,10.3,0,0,1,1.66-1l.17-.11c1.08-.66,2.2-1.3,3.33-1.91.57-.45,1.26-.7,1.86-1.11.4-.27.85-.49,1.27-.74L93.77,38l3.84-2.21c.74-.43,1.51-.81,2.21-1.31C100.07,34.32,100.15,34.36,100.31,34.63Z" transform="translate(-13.95 -0.51)" style="fill:#da4225"/><path d="M100.32,165.38c-.12.15-.27.22-.42.08a2.55,2.55,0,0,0-1-.6c-.11,0-.21-.15-.32-.22a5.29,5.29,0,0,0-.5-.32A17.39,17.39,0,0,1,96,163.08a4.75,4.75,0,0,1-.93-.53,1.93,1.93,0,0,0-.88-.44h-.08a8.62,8.62,0,0,0-1.52-.91c-.83-.46-1.64-1-2.45-1.45-.42-.26-.86-.49-1.29-.73l-2.3-1.33a26.6,26.6,0,0,0-2.66-1.49.42.42,0,0,1-.17-.1c-1.08-.7-2.21-1.31-3.32-2-.48-.28-1-.56-1.46-.82s-1-.59-1.43-.86c-1.37-.79-2.75-1.56-4.11-2.35-1.06-.61-2.1-1.24-3.15-1.85s-1.83-1-2.75-1.55-1.64-1-2.47-1.43l-3.17-1.73c-.52-.29-1-.59-1.54-.88l-2-1.12-1.59-1c-1-.59-2-1.18-3-1.73a4.21,4.21,0,0,1-.51-.29c-.63-.43-1.31-.76-2-1.16l-1.87-1.07-1-.52c-.3-.2-.61-.38-.93-.55s-.83-.52-1.28-.74-1.14-.66-1.7-1a6.1,6.1,0,0,1-.87-.47.69.69,0,0,1-.29-.6V101.63a.7.7,0,0,1,.37-.64c.68-.41,1.36-.8,2.06-1.17l.34-.19c1.09-.69,2.21-1.31,3.33-1.94s2.27-1.32,3.41-2c1.42-.83,2.84-1.67,4.27-2.48a6.56,6.56,0,0,0,1.37-.7,6.82,6.82,0,0,0,1.37-.76,8.37,8.37,0,0,0,1-.58l.94-.55c.31-.17.65-.31,1-.51a14.89,14.89,0,0,1,1.79-1,1.46,1.46,0,0,0,.33-.22,2.75,2.75,0,0,1,.85-.48.34.34,0,0,0,.18-.09,21,21,0,0,1,2-1.18c.28-.18.56-.34.83-.53s.54-.23.78-.42a4.18,4.18,0,0,1,1-.59c.27-.11.49-.34.75-.47q.66-.33,1.29-.72l2-1.16c.22-.14.46-.25.69-.38.86-.47,1.71-1,2.56-1.47.48-.28,1-.57,1.44-.84.86-.48,1.7-1,2.56-1.49l2.66-1.5c.64-.34,1.24-.74,1.86-1.11.37-.22.75-.41,1.11-.63l2.57-1.48,2.65-1.51c.47-.24.9-.54,1.37-.79.87-.46,1.7-1,2.56-1.48.56-.33,1.14-.64,1.71-1l1.69-1c.19-.12.26-.09.42.21a2.12,2.12,0,0,1,.32,1.06V94.25c0,.53,0,1.08-.7,1.24-.78.49-1.62.88-2.37,1.42a4.83,4.83,0,0,1-.79.39c-.26.15-.5.32-.75.47l-1.79,1-1.62.94c-.4.08-.64.44-1,.58s-.65.45-1,.61c-.71.29-1.3.78-2,1.1-.21.1-.4.23-.61.33-.39.18-.67.53-1.08.67a5.3,5.3,0,0,0-1,.6c-.38.25-.81.43-1.21.66-.62.36-1.24.74-1.85,1.12a2.91,2.91,0,0,1-.78.41,1.67,1.67,0,0,0-.44.23c-1.26.76-2.57,1.46-3.81,2.27-.19.13-.42.19-.61.31-.49.28-1,.57-1.44.86l-1,.58a5.81,5.81,0,0,1-.94.53,14.71,14.71,0,0,0-1.44.85c-.92.51-1.8,1.07-2.72,1.58s-1.71,1-2.56,1.48a.34.34,0,0,0-.18.32v4.25a.53.53,0,0,0,.29.48c.31.18.64.33.94.54.49.33,1,.56,1.53.89s1,.61,1.54.88c1.63.93,3.24,1.88,4.88,2.79,2.14,1.21,4.26,2.49,6.39,3.73.93.55,1.88,1.08,2.82,1.62l1.79,1c1.24.69,2.46,1.39,3.66,2.13.62.3,1.23.64,1.82,1s1.1.72,1.69,1,1.3.77,2,1.11,1.32.75,2,1.13l.42.25a2.89,2.89,0,0,0,.86.47c.12,0,.2.16.3.25a1.85,1.85,0,0,0,.4.24h0c.6.41.5,1,.5,1.61v23.59A2.66,2.66,0,0,1,100.32,165.38Z" transform="translate(-13.95 -0.51)" style="fill:#4a57a6"/><path d="M99.71,172.46a.19.19,0,0,0,.13.14.58.58,0,0,1,.45.67h0a2.54,2.54,0,0,0,0,.39v25.72a.25.25,0,0,1-.3.17h0l-2.31-1.32c-1.36-.78-2.71-1.6-4.1-2.35-.09,0-.17-.1-.26-.15-1-.67-2.15-1.26-3.24-1.86-.66-.37-1.3-.78-2-1.17-.39-.23-.78-.48-1.19-.69-1.23-.62-2.37-1.4-3.57-2.09-.48-.28-1-.51-1.48-.79s-1-.58-1.43-.86-.74-.43-1.13-.63c-.75-.47-1.53-.91-2.33-1.31a24,24,0,0,0-2.54-1.52,16,16,0,0,0-2-1.17c-.84-.58-1.76-1-2.63-1.55s-2-1.2-3-1.71c-.5-.25-1-.57-1.45-.85-.67-.41-1.35-.81-2-1.17s-1-.61-1.53-.91l-3-1.72c-1-.57-2.08-1.27-3.14-1.86s-1.93-1.12-2.9-1.67l-1.8-1c-.89-.56-1.8-1.08-2.74-1.55a1.28,1.28,0,0,1-.25-.15c-.93-.56-1.86-1.13-2.81-1.65-.43-.24-.84-.51-1.27-.75s-.79-.47-1.2-.68c-.93-.49-1.79-1.1-2.75-1.54a1.65,1.65,0,0,1-.41-.28,4.18,4.18,0,0,0-.68-.4,10.44,10.44,0,0,1-1.45-.83,13,13,0,0,1-1.68-1c-.25-.22-.62-.22-.87-.47a2.54,2.54,0,0,0-.77-.43c-.29-.14-.57-.32-.85-.48s-.41-.22-.6-.35a2.24,2.24,0,0,0-.85-.48.35.35,0,0,1-.17-.09,3.29,3.29,0,0,0-1.19-.68c-.43-.37-1-.55-1.43-.87s-.73-.3-1-.57a5.35,5.35,0,0,0-1.1-.66c-.34-.19-.68-.39-1-.6a3.47,3.47,0,0,0-1-.5,1.41,1.41,0,0,1-.34-.19,16.17,16.17,0,0,0-2.11-1.27c-.85-.5-1.7-1-2.56-1.47s-1.69-1-2.56-1.5-2-1.16-3-1.7a.52.52,0,0,1-.29-.48V119.63a2.58,2.58,0,0,1,.09-1.17c.31-.19.61-.39.93-.56a32.24,32.24,0,0,0,2.89-1.69c.33-.21.7-.37,1-.57,1.06-.6,2.13-1.18,3.16-1.83a15,15,0,0,0,1.9-1.18c1-.44,1.9-1.17,2.92-1.63a6.71,6.71,0,0,1,1.19-.69,5.05,5.05,0,0,1,1.11-.63c.9-.61,1.89-1.08,2.79-1.68a7.77,7.77,0,0,0,1-.5,4.47,4.47,0,0,1,.85-.49,17.5,17.5,0,0,0,1.6-1l1.54-.87H37a.29.29,0,0,1,.31.19,1.4,1.4,0,0,1,0,.29v30.61a.41.41,0,0,0,.2.32.45.45,0,0,0,.17.11c.76.39,1.51.81,2.23,1.26.25.16.53.26.79.41.79.47,1.57,1,2.37,1.42.34.17.68.36,1,.56a5.1,5.1,0,0,0,1,.6c.17.1.34.2.5.31l1.46.82.42.25c.2.12.38.26.58.37,1.09.61,2.18,1.23,3.25,1.87.73.44,1.49.84,2.23,1.27,1.14.66,2.28,1.31,3.41,2a17.2,17.2,0,0,0,1.9,1c.46.23.89.55,1.35.81,1,.53,1.85,1.13,2.81,1.63s1.84,1.16,2.83,1.6c1.32.86,2.72,1.61,4.08,2.39s2.66,1.58,4,2.3c.55.3,1.07.65,1.62.94s1,.63,1.54.9.78.5,1.18.7a13.22,13.22,0,0,1,1.2.69,5.51,5.51,0,0,0,.86.47c.66.31,1.22.79,1.89,1.07.84.59,1.76,1,2.64,1.53,1.42.83,2.81,1.71,4.27,2.46h.09a6.65,6.65,0,0,0,1.36.8c.86.66,1.9,1,2.78,1.67a5.41,5.41,0,0,1,1.35.8,7.56,7.56,0,0,1,1.12.61c.43.18.76.52,1.19.7s.75.41,1.11.64a2.66,2.66,0,0,1,.61.3C99.09,172.08,99.47,172.15,99.71,172.46Z" transform="translate(-13.95 -0.51)" style="fill:#da4225"/><path d="M100.09,27.38a1.53,1.53,0,0,0,.2-.75V.63a9.35,9.35,0,0,1,1.48.75c1,.52,1.84,1.16,2.82,1.61.64.47,1.4.73,2,1.17,1,.63,2,1.14,2.89,1.72s1.65.94,2.46,1.44,1.9,1.06,2.84,1.6l1.28.74c1.15.71,2.35,1.32,3.5,2s2.64,1.49,3.92,2.29c.55.35,1.14.66,1.72,1s1,.58,1.44.85c1.11.64,2.24,1.26,3.34,1.92s1.93,1.11,2.89,1.68,2,1.14,3,1.71l1.45.84,1.44.86a7.56,7.56,0,0,0,1.11.63c.65.27,1.16.76,1.81,1,.92.65,1.93,1.13,2.89,1.7,1.19.71,2.36,1.44,3.57,2.09,1,.56,2,1.2,3.09,1.76.26.14.49.3.77.42a4.38,4.38,0,0,1,.58.37l.59.35c.17.09.36.17.52.27.61.39,1.25.73,1.88,1.09a7.85,7.85,0,0,0,.92.57,3.65,3.65,0,0,1,.85.5c.46.32,1,.49,1.46.81.27.19.56.35.84.51s.36.16.53.25l.33.22.4.27c.65.27,1.18.72,1.81,1,.29.14.55.35.85.47a4.26,4.26,0,0,1,.75.47L167,39.07c.17.1.36.17.53.28.82.53,1.68,1,2.54,1.5a10.77,10.77,0,0,0,1.9,1A16.7,16.7,0,0,0,173.83,43c1,.55,1.91,1.16,2.93,1.64a5.44,5.44,0,0,0,1,.63l4.09,2.38,3.94,2.24a.44.44,0,0,1,.23.41V76.63a.21.21,0,0,1-.21.21h-.06a1.31,1.31,0,0,1-.37-.15c-.93-.61-1.93-1.11-2.89-1.68s-1.9-1.06-2.83-1.62c-1.94-1.17-3.93-2.27-5.89-3.41l-5.21-3c-1.17-.66-2.33-1.35-3.5-2a13.38,13.38,0,0,1-1.71-1c-.59-.28-1.13-.69-1.7-1-1.42-.77-2.78-1.63-4.2-2.39a9.12,9.12,0,0,0-1-.6,7.22,7.22,0,0,1-1.1-.65c-.34-.2-.67-.41-1-.59s-.9-.53-1.37-.77a1.43,1.43,0,0,1-.43-.25,14.52,14.52,0,0,0-1.53-.89,14.59,14.59,0,0,0-1.54-.88,2,2,0,0,1-.5-.31c-.22-.14-.45-.28-.68-.4-.81-.49-1.67-.91-2.48-1.42-.47-.3-1-.55-1.43-.85s-.9-.54-1.36-.81-1-.57-1.46-.82-.65-.44-1-.62-.69-.38-1-.57L138,49.3l-.18-.08c-1.26-.91-2.69-1.53-4-2.38-.69-.36-1.35-.75-2-1.17s-1.38-.76-2.07-1.16a8.75,8.75,0,0,0-1.37-.77,9.66,9.66,0,0,0-1.34-.83c-1.41-.78-2.78-1.63-4.2-2.4-.51-.28-1-.61-1.53-.89s-1.13-.67-1.7-1c-.74-.42-1.49-.83-2.21-1.29-.39-.25-.82-.42-1.21-.67-.78-.48-1.62-.87-2.37-1.41-.91-.4-1.71-1-2.58-1.44-.67-.35-1.3-.76-2-1.14l-1-.57c-.64-.34-1.25-.73-1.87-1.09l-1.61-1-1.54-.88c-.71-.42-1.43-.81-2.13-1.24-.13-.09-.3-.13-.43-.22S100.2,27.56,100.09,27.38Z" transform="translate(-13.95 -0.51)" style="fill:#fa4c2a"/><path d="M100.32,165.38V139.52a2.17,2.17,0,0,0-.18-1c.53-.32,1.09-.6,1.61-.94a13,13,0,0,1,1.22-.66c.59-.29,1.12-.69,1.7-1s1.08-.63,1.62-.94c.34-.19.7-.37,1-.58a6.75,6.75,0,0,1,1-.52.94.94,0,0,0,.26-.14,9.91,9.91,0,0,1,1.18-.7c.38-.19.73-.46,1.1-.65.73-.38,1.4-.87,2.15-1.21.52-.42,1.17-.6,1.69-1a6.71,6.71,0,0,1,1.19-.69c.81-.44,1.58-1,2.38-1.39s1.59-.93,2.39-1.39a6.41,6.41,0,0,0,1.19-.68c.59-.23,1.07-.64,1.63-.92s1-.57,1.45-.83c.7-.37,1.38-.78,2-1.19,1-.58,2-1.1,2.9-1.68s2-1.14,3-1.71c.11-.06.21-.15.32-.22a.52.52,0,0,0,.24-.41v-4.2a.45.45,0,0,0-.29-.46.45.45,0,0,1-.18-.07c-1.42-.83-2.83-1.68-4.26-2.49a18.35,18.35,0,0,0-1.72-1,.42.42,0,0,1-.16-.11.21.21,0,0,1,0-.31h0c.73-.44,1.46-.89,2.2-1.32l4.28-2.44c1.77-1,3.56-2,5.31-3,1.16-.68,2.34-1.35,3.51-2,1-.56,1.92-1.16,2.89-1.7s2.21-1.3,3.31-1.94c.43-.25.86-.49,1.3-.7a.51.51,0,0,1,.48,0l2.17,1.3c1,.55,1.95,1.1,2.91,1.66.43.25.85.5,1.27.77a.42.42,0,0,1,.19.33V132c0,.82.08.84-.78,1.26-.53.26-1,.6-1.54.89-1.09.61-2.18,1.21-3.25,1.86s-2,1.1-2.9,1.7-1.65.94-2.48,1.42l-4.18,2.47a2.71,2.71,0,0,1-.69.37,1.41,1.41,0,0,0-.34.19c-.51.38-1.08.62-1.62,1s-1.11.58-1.62.93-1.2.68-1.79,1-1.19.71-1.8,1a4.42,4.42,0,0,1-1,.6c-1,.57-1.93,1.13-2.9,1.69l-.51.28a3.68,3.68,0,0,0-.44.23,21.7,21.7,0,0,1-2.54,1.5c-.43.25-.84.53-1.27.75-.9.48-1.71,1.12-2.65,1.51-.64.47-1.39.75-2,1.22a11.72,11.72,0,0,1-1.29.72,7.08,7.08,0,0,1-1.55.85,21.81,21.81,0,0,1-2.46,1.46,22.74,22.74,0,0,1-2.4,1.36,21.73,21.73,0,0,1-2.46,1.45c-1.48.87-3,1.72-4.44,2.57s-2.79,1.62-4.19,2.43A10,10,0,0,1,100.32,165.38Z" transform="translate(-13.95 -0.51)" style="fill:#5564bf"/><path d="M100,95.46l.2-.21a.44.44,0,0,0,.18-.33V68.63q.27.11.54.24l5.21,3c1.14.64,2.27,1.31,3.41,2a19.68,19.68,0,0,1,1.8,1c.59.3,1.11.71,1.7,1,.82.41,1.59.91,2.39,1.37s1.58,1,2.39,1.38c1.13.6,2.19,1.33,3.33,1.91.62.32,1.19.71,1.8,1s1.16.76,1.78,1,1.14.78,1.81,1l.17.11a18,18,0,0,0,2,1.24c.2.11.39.23.58.36l.52.27.44.23,2.28,1.37a3.42,3.42,0,0,0,.87.45.48.48,0,0,1,.18.08,19.74,19.74,0,0,0,1.76,1.08c.33.27.77.36,1.1.66.65.24,1.14.78,1.8,1,.92.64,2,1.06,2.88,1.7.68.28,1.22.78,1.88,1.07.22.1.54.19.52.52s-.27.37-.47.47c-.8.37-1.54.87-2.31,1.3s-1.52.92-2.31,1.34-1.7,1-2.56,1.47-1.48.86-2.22,1.29c-.28.17-.58.31-.86.47-.88.52-1.74,1.07-2.64,1.56-1.39.74-2.73,1.58-4.1,2.36-.92.51-1.84,1-2.73,1.58a25.4,25.4,0,0,1-2.49,1.42.63.63,0,0,1-.65,0l-1.28-.74a4.92,4.92,0,0,0-1-.5,1.64,1.64,0,0,1-.43-.24c-.67-.49-1.41-.85-2.11-1.28a5.86,5.86,0,0,0-.78-.42,3.2,3.2,0,0,1-.51-.29,1.14,1.14,0,0,0-.32-.22c-.47-.24-.91-.52-1.36-.79s-.87-.47-1.3-.72-.54-.37-.84-.51c-.71-.34-1.35-.81-2-1.19s-1.33-.72-2-1.1c-1-.56-1.91-1.17-2.88-1.7s-1.83-1-2.73-1.58A2.94,2.94,0,0,0,100,95.46Z" transform="translate(-13.95 -0.51)" style="fill:#5564bf"/><path d="M125.13,117v.09l-.22.19-1.77,1.08c-.2.11-.43.18-.62.3-1.26.77-2.58,1.45-3.83,2.25a13.76,13.76,0,0,1-1.55.85c-.11.06-.24.11-.35.18-.92.63-1.92,1.14-2.86,1.73-.39.25-.81.44-1.21.67-.83.47-1.63,1-2.46,1.45-.49.27-1,.57-1.46.81a12.17,12.17,0,0,0-1.45.84c-.7.44-1.42.82-2.13,1.23l-1.87,1.1-1.34.72H102a9.14,9.14,0,0,1-1.81,1,14.43,14.43,0,0,1-1.8-1,15.19,15.19,0,0,1-1.87-1.09c-.39-.24-.79-.47-1.2-.68-1.46-.82-2.91-1.67-4.35-2.52-.59-.36-1.21-.67-1.81-1l-2.47-1.43-4.27-2.49-1.54-.87-1.36-.8-2-1.12-2.22-1.29a.65.65,0,0,1-.13-.16.15.15,0,0,1,0-.18s.08-.12.14-.14a11.69,11.69,0,0,0,1.54-.87,6.67,6.67,0,0,1,.94-.53,5.86,5.86,0,0,0,.92-.57c.41-.26.86-.46,1.29-.69a10.52,10.52,0,0,1,1.47-.81,1,1,0,0,0,.17-.1,8,8,0,0,1,1.33-.83l1.37-.79c.63-.35,1.26-.7,1.88-1.06s1.08-.64,1.61-1a15.15,15.15,0,0,1,1.86-1l.17-.1c1.34-.9,2.8-1.59,4.16-2.46.65-.24,1.18-.71,1.8-1s1.12-.69,1.7-1c.84-.46,1.67-.92,2.47-1.44a.24.24,0,0,1,.35,0h0a2.86,2.86,0,0,0,.91.57c.09,0,.17.1.26.15,1.06.66,2.16,1.25,3.23,1.88.65.38,1.33.72,2,1.15q.38.23.78.42c.72.39,1.38.88,2.14,1.22.9.66,1.93,1.12,2.89,1.69,1.29.78,2.59,1.54,3.93,2.25.63.47,1.39.74,2,1.23.25.15.5.3.77.43a6.61,6.61,0,0,1,1,.57c.3.19.62.37.94.53.49.25.95.58,1.44.85s.83.53,1.25.77.83.42,1.23.64A1,1,0,0,0,125.13,117Z" transform="translate(-13.95 -0.51)" style="fill:#fa4c2a"/><path d="M100.12,138.63c-.19,0-.35,0-.4-.24A.58.58,0,0,1,100.12,138.63Z" transform="translate(-13.95 -0.51)" style="fill:#5564bf"/></svg>